<svg xmlns="http://www.w3.org/2000/svg" viewBox="0 0 10350 291" width="10350" height="291"><path d="M0 0h225v290.5H0z" fill="#ffffff"/><path d="M40.049 82.024v45.819m0 0h28.637m-28.637 0v45.819m0 0h28.637m-28.637 0v45.819m0 0h28.637m-28.637 0V265.3m0 0h28.637m0-183.276v45.819m0 0h28.636m-28.636 0v45.819m0 0h28.636m-28.636 0v45.819m0 0h28.636m-28.636 0V265.3m0 0h28.636m0-183.276v45.819m0 0h28.637m-28.637 0v45.819m0 0h28.637m-28.637 0v45.819m0 0h28.637m-28.637 0V265.3m0 0h28.637m0-183.276v45.819m0 0h28.637m-28.637 0v45.819m0 0h28.637m-28.637 0v45.819m0 0h28.637m-28.637 0V265.3m0 0h28.637m0-183.276v45.819m0 0h28.637m-28.637 0v45.819m0 0h28.637m-28.637 0v45.819m0 0h28.637m-28.637 0V265.3m0 0h28.637m0-183.276v45.819m0 0v45.819m0 0v45.819m0 0V265.3v-45.819z" fill="none" stroke="#000000" stroke-width="1.15" stroke-dasharray="0,45.819" stroke-dashoffset="45.819"/><path d="M31.458 49.951L48.64 68.278m-17.182 0L48.64 49.951 31.458 68.278zm47.537-9.164c0 5.656-4.654 10.31-10.309 10.31-5.656 0-10.31-4.654-10.31-10.31 0-5.655 4.654-10.309 10.31-10.309 5.651 0 10.303 4.648 10.309 10.299v.01zm114.547 0c0 5.656-4.654 10.31-10.309 10.31-5.656 0-10.309-4.654-10.309-10.31 0-5.655 4.653-10.309 10.309-10.309 5.652 0 10.304 4.648 10.309 10.299v.01z" fill="none" stroke="#000000" stroke-width=".57" stroke-dasharray="0,25.121704818741904" stroke-dashoffset="25.121705"/><path d="M225 0h225v290.5H225z" fill="#ffffff"/><path d="M264.476 76.297h144.33v5.727h-144.33z" fill="#000000" fill-opacity=".001075"/><path d="M265.049 82.024v45.819m0 0h28.637m-28.637 0v45.819m0 0h28.637m-28.637 0v45.819m0 0h28.637m-28.637 0V265.3m0 0h28.637m0-183.276v45.819m0 0h28.636m-28.636 0v45.819m0 0h28.636m-28.636 0v45.819m0 0h28.636m-28.636 0V265.3m0 0h28.636m0-183.276v45.819m0 0h28.637m-28.637 0v45.819m0 0h28.637m-28.637 0v45.819m0 0h28.637m-28.637 0V265.3m0 0h28.637m0-183.276v45.819m0 0h28.637m-28.637 0v45.819m0 0h28.637m-28.637 0v45.819m0 0h28.637m-28.637 0V265.3m0 0h28.637m0-183.276v45.819m0 0h28.637m-28.637 0v45.819m0 0h28.637m-28.637 0v45.819m0 0h28.637m-28.637 0V265.3m0 0h28.637m0-183.276v45.819m0 0v45.819m0 0v45.819m0 0V265.3v-45.819z" fill="none" stroke="#000000" stroke-width="1.15" stroke-dasharray="0.04926985278539208,45.76973014721461" stroke-dashoffset="45.819"/><path d="M322.322 150.752h11.455c0 6.284-5.171 11.455-11.455 11.455-6.283 0-11.454-5.171-11.454-11.455s5.171-11.454 11.454-11.454c6.28 0 11.449 5.163 11.455 11.443m17.182.011h11.455c0 6.284-5.171 11.455-11.455 11.455s-11.454-5.171-11.454-11.455 5.17-11.454 11.454-11.454c6.28 0 11.449 5.163 11.455 11.443m17.182-45.808h11.455c0 6.284-5.171 11.455-11.455 11.455s-11.455-5.171-11.455-11.455 5.171-11.454 11.455-11.454c6.28 0 11.449 5.163 11.455 11.443l-11.455.011z" fill="#000000" fill-opacity=".001075"/><path d="M256.458 49.951l17.182 18.327m-17.182 0l17.182-18.327-17.182 18.327zm47.537-9.164c0 5.656-4.654 10.31-10.309 10.31-5.656 0-10.31-4.654-10.31-10.31 0-5.655 4.654-10.309 10.31-10.309 5.651 0 10.303 4.648 10.309 10.299v.01zm114.547 0c0 5.656-4.654 10.31-10.309 10.31-5.656 0-10.309-4.654-10.309-10.31 0-5.655 4.653-10.309 10.309-10.309 5.652 0 10.304 4.648 10.309 10.299v.01z" fill="none" stroke="#000000" stroke-width=".57" stroke-dasharray="0.027013743166317213,25.094691075575586" stroke-dashoffset="25.121705"/><path d="M450 0h225v290.5H450z" fill="#ffffff"/><path d="M489.476 76.297h144.33v5.727h-144.33z" fill="#000000" fill-opacity=".004505"/><path d="M490.049 82.024v45.819m0 0h28.637m-28.637 0v45.819m0 0h28.637m-28.637 0v45.819m0 0h28.637m-28.637 0V265.3m0 0h28.637m0-183.276v45.819m0 0h28.636m-28.636 0v45.819m0 0h28.636m-28.636 0v45.819m0 0h28.636m-28.636 0V265.3m0 0h28.636m0-183.276v45.819m0 0h28.637m-28.637 0v45.819m0 0h28.637m-28.637 0v45.819m0 0h28.637m-28.637 0V265.3m0 0h28.637m0-183.276v45.819m0 0h28.637m-28.637 0v45.819m0 0h28.637m-28.637 0v45.819m0 0h28.637m-28.637 0V265.3m0 0h28.637m0-183.276v45.819m0 0h28.637m-28.637 0v45.819m0 0h28.637m-28.637 0v45.819m0 0h28.637m-28.637 0V265.3m0 0h28.637m0-183.276v45.819m0 0v45.819m0 0v45.819m0 0V265.3v-45.819z" fill="none" stroke="#000000" stroke-width="1.15" stroke-dasharray="0.20642145437550363,45.6125785456245" stroke-dashoffset="45.819"/><path d="M547.322 150.752h11.455c0 6.284-5.171 11.455-11.455 11.455-6.283 0-11.454-5.171-11.454-11.455s5.171-11.454 11.454-11.454c6.28 0 11.449 5.163 11.455 11.443m17.182.011h11.455c0 6.284-5.171 11.455-11.455 11.455s-11.454-5.171-11.454-11.455 5.17-11.454 11.454-11.454c6.28 0 11.449 5.163 11.455 11.443m17.182-45.808h11.455c0 6.284-5.171 11.455-11.455 11.455s-11.455-5.171-11.455-11.455 5.171-11.454 11.455-11.454c6.28 0 11.449 5.163 11.455 11.443l-11.455.011z" fill="#000000" fill-opacity=".004505"/><path d="M481.458 49.951l17.182 18.327m-17.182 0l17.182-18.327-17.182 18.327zm47.537-9.164c0 5.656-4.654 10.31-10.309 10.31-5.656 0-10.31-4.654-10.31-10.31 0-5.655 4.654-10.309 10.31-10.309 5.651 0 10.303 4.648 10.309 10.299v.01zm114.547 0c0 5.656-4.654 10.31-10.309 10.31-5.656 0-10.309-4.654-10.309-10.31 0-5.655 4.653-10.309 10.309-10.309 5.652 0 10.304 4.648 10.309 10.299v.01z" fill="none" stroke="#000000" stroke-width=".57" stroke-dasharray="0.11317704107633954,25.008527777665567" stroke-dashoffset="25.121705"/><path d="M675 0h225v290.5H675z" fill="#ffffff"/><path d="M714.476 76.297h144.33v5.727h-144.33z" fill="#000000" fill-opacity=".010641"/><path d="M715.049 82.024v45.819m0 0h28.637m-28.637 0v45.819m0 0h28.637m-28.637 0v45.819m0 0h28.637m-28.637 0V265.3m0 0h28.637m0-183.276v45.819m0 0h28.636m-28.636 0v45.819m0 0h28.636m-28.636 0v45.819m0 0h28.636m-28.636 0V265.3m0 0h28.636m0-183.276v45.819m0 0h28.637m-28.637 0v45.819m0 0h28.637m-28.637 0v45.819m0 0h28.637m-28.637 0V265.3m0 0h28.637m0-183.276v45.819m0 0h28.637m-28.637 0v45.819m0 0h28.637m-28.637 0v45.819m0 0h28.637m-28.637 0V265.3m0 0h28.637m0-183.276v45.819m0 0h28.637m-28.637 0v45.819m0 0h28.637m-28.637 0v45.819m0 0h28.637m-28.637 0V265.3m0 0h28.637m0-183.276v45.819m0 0v45.819m0 0v45.819m0 0V265.3v-45.819z" fill="none" stroke="#000000" stroke-width="1.15" stroke-dasharray="0.4875487467973886,45.331451253202616" stroke-dashoffset="45.819"/><path d="M772.322 150.752h11.455c0 6.284-5.171 11.455-11.455 11.455-6.283 0-11.454-5.171-11.454-11.455s5.171-11.454 11.454-11.454c6.28 0 11.449 5.163 11.455 11.443m17.182.011h11.455c0 6.284-5.171 11.455-11.455 11.455s-11.454-5.171-11.454-11.455 5.17-11.454 11.454-11.454c6.28 0 11.449 5.163 11.455 11.443m17.182-45.808h11.455c0 6.284-5.171 11.455-11.455 11.455s-11.455-5.171-11.455-11.455 5.171-11.454 11.455-11.454c6.28 0 11.449 5.163 11.455 11.443l-11.455.011z" fill="#000000" fill-opacity=".010641"/><path d="M706.458 49.951l17.182 18.327m-17.182 0l17.182-18.327-17.182 18.327zm47.537-9.164c0 5.656-4.654 10.31-10.309 10.31-5.656 0-10.31-4.654-10.31-10.31 0-5.655 4.654-10.309 10.31-10.309 5.651 0 10.303 4.648 10.309 10.299v.01zm114.547 0c0 5.656-4.654 10.31-10.309 10.31-5.656 0-10.309-4.654-10.309-10.31 0-5.655 4.653-10.309 10.309-10.309 5.652 0 10.304 4.648 10.309 10.299v.01z" fill="none" stroke="#000000" stroke-width=".57" stroke-dasharray="0.26731390256861853,24.854390916173283" stroke-dashoffset="25.121705"/><path d="M900 0h225v290.5H900z" fill="#ffffff"/><path d="M939.476 76.297h144.33v5.727h-144.33z" fill="#000000" fill-opacity=".019904"/><path d="M940.049 82.024v45.819m0 0h28.637m-28.637 0v45.819m0 0h28.637m-28.637 0v45.819m0 0h28.637m-28.637 0V265.3m0 0h28.637m0-183.276v45.819m0 0h28.636m-28.636 0v45.819m0 0h28.636m-28.636 0v45.819m0 0h28.636m-28.636 0V265.3m0 0h28.636m0-183.276v45.819m0 0h28.637m-28.637 0v45.819m0 0h28.637m-28.637 0v45.819m0 0h28.637m-28.637 0V265.3m0 0h28.637m0-183.276v45.819m0 0h28.637m-28.637 0v45.819m0 0h28.637m-28.637 0v45.819m0 0h28.637m-28.637 0V265.3m0 0h28.637m0-183.276v45.819m0 0h28.637m-28.637 0v45.819m0 0h28.637m-28.637 0v45.819m0 0h28.637m-28.637 0V265.3m0 0h28.637m0-183.276v45.819m0 0v45.819m0 0v45.819m0 0V265.3v-45.819z" fill="none" stroke="#000000" stroke-width="1.15" stroke-dasharray="0.9119840753689978,44.907015924631004" stroke-dashoffset="45.819"/><path d="M997.322 150.752h11.455c0 6.284-5.171 11.455-11.455 11.455-6.283 0-11.454-5.171-11.454-11.455s5.171-11.454 11.454-11.454c6.28 0 11.449 5.163 11.455 11.443m17.182.011h11.455c0 6.284-5.171 11.455-11.455 11.455s-11.454-5.171-11.454-11.455 5.17-11.454 11.454-11.454c6.28 0 11.449 5.163 11.455 11.443m17.182-45.808h11.455c0 6.284-5.171 11.455-11.455 11.455s-11.455-5.171-11.455-11.455 5.171-11.454 11.455-11.454c6.28 0 11.449 5.163 11.455 11.443l-11.455.011z" fill="#000000" fill-opacity=".019904"/><path d="M931.458 49.951l17.182 18.327m-17.182 0l17.182-18.327-17.182 18.327zm47.537-9.164c0 5.656-4.654 10.31-10.309 10.31-5.656 0-10.31-4.654-10.31-10.31 0-5.655 4.654-10.309 10.31-10.309 5.651 0 10.303 4.648 10.309 10.299v.01zm114.547 0c0 5.656-4.654 10.31-10.309 10.31-5.656 0-10.309-4.654-10.309-10.31 0-5.655 4.653-10.309 10.309-10.309 5.652 0 10.304 4.648 10.309 10.299v.01z" fill="none" stroke="#000000" stroke-width=".57" stroke-dasharray="0.5000238927260139,24.621680926015888" stroke-dashoffset="25.121705"/><path d="M1125 0h225v290.5h-225z" fill="#ffffff"/><path d="M1164.476 76.297h144.33v5.727h-144.33z" fill="#000000" fill-opacity=".032801"/><path d="M1165.049 82.024v45.819m0 0h28.637m-28.637 0v45.819m0 0h28.637m-28.637 0v45.819m0 0h28.637m-28.637 0V265.3m0 0h28.637m0-183.276v45.819m0 0h28.636m-28.636 0v45.819m0 0h28.636m-28.636 0v45.819m0 0h28.636m-28.636 0V265.3m0 0h28.636m0-183.276v45.819m0 0h28.637m-28.637 0v45.819m0 0h28.637m-28.637 0v45.819m0 0h28.637m-28.637 0V265.3m0 0h28.637m0-183.276v45.819m0 0h28.637m-28.637 0v45.819m0 0h28.637m-28.637 0v45.819m0 0h28.637m-28.637 0V265.3m0 0h28.637m0-183.276v45.819m0 0h28.637m-28.637 0v45.819m0 0h28.637m-28.637 0v45.819m0 0h28.637m-28.637 0V265.3m0 0h28.637m0-183.276v45.819m0 0v45.819m0 0v45.819m0 0V265.3v-45.819z" fill="none" stroke="#000000" stroke-width="1.15" stroke-dasharray="1.5028963622643652,44.31610363773564" stroke-dashoffset="45.819"/><path d="M1222.322 150.752h11.455c0 6.284-5.171 11.455-11.455 11.455-6.283 0-11.454-5.171-11.454-11.455s5.171-11.454 11.454-11.454c6.28 0 11.449 5.163 11.455 11.443m17.182.011h11.455c0 6.284-5.171 11.455-11.455 11.455s-11.454-5.171-11.454-11.455 5.17-11.454 11.454-11.454c6.28 0 11.449 5.163 11.455 11.443m17.182-45.808h11.455c0 6.284-5.171 11.455-11.455 11.455s-11.455-5.171-11.455-11.455 5.171-11.454 11.455-11.454c6.28 0 11.449 5.163 11.455 11.443l-11.455.011z" fill="#000000" fill-opacity=".032801"/><path d="M1156.458 49.951l17.182 18.327m-17.182 0l17.182-18.327-17.182 18.327zm47.537-9.164c0 5.656-4.654 10.31-10.309 10.31-5.656 0-10.31-4.654-10.31-10.31 0-5.655 4.654-10.309 10.31-10.309 5.651 0 10.303 4.648 10.309 10.299v.01zm114.547 0c0 5.656-4.654 10.31-10.309 10.31-5.656 0-10.309-4.654-10.309-10.31 0-5.655 4.653-10.309 10.309-10.309 5.652 0 10.304 4.648 10.309 10.299v.01z" fill="none" stroke="#000000" stroke-width=".57" stroke-dasharray="0.8240101003069988,24.297694718434904" stroke-dashoffset="25.121705"/><g><path d="M1350 0h225v290.5h-225z" fill="#ffffff"/><path d="M1389.476 76.297h144.33v5.727h-144.33z" fill="#000000" fill-opacity=".049931"/><path d="M1390.049 82.024v45.819m0 0h28.637m-28.637 0v45.819m0 0h28.637m-28.637 0v45.819m0 0h28.637m-28.637 0V265.3m0 0h28.637m0-183.276v45.819m0 0h28.636m-28.636 0v45.819m0 0h28.636m-28.636 0v45.819m0 0h28.636m-28.636 0V265.3m0 0h28.636m0-183.276v45.819m0 0h28.637m-28.637 0v45.819m0 0h28.637m-28.637 0v45.819m0 0h28.637m-28.637 0V265.3m0 0h28.637m0-183.276v45.819m0 0h28.637m-28.637 0v45.819m0 0h28.637m-28.637 0v45.819m0 0h28.637m-28.637 0V265.3m0 0h28.637m0-183.276v45.819m0 0h28.637m-28.637 0v45.819m0 0h28.637m-28.637 0v45.819m0 0h28.637m-28.637 0V265.3m0 0h28.637m0-183.276v45.819m0 0v45.819m0 0v45.819m0 0V265.3v-45.819z" fill="none" stroke="#000000" stroke-width="1.15" stroke-dasharray="2.2877796439783125,43.531220356021684" stroke-dashoffset="45.819"/><path d="M1447.322 150.752h11.455c0 6.284-5.171 11.455-11.455 11.455-6.283 0-11.454-5.171-11.454-11.455s5.171-11.454 11.454-11.454c6.28 0 11.449 5.163 11.455 11.443m17.182.011h11.455c0 6.284-5.171 11.455-11.455 11.455s-11.454-5.171-11.454-11.455 5.17-11.454 11.454-11.454c6.28 0 11.449 5.163 11.455 11.443m17.182-45.808h11.455c0 6.284-5.171 11.455-11.455 11.455s-11.455-5.171-11.455-11.455 5.171-11.454 11.455-11.454c6.28 0 11.449 5.163 11.455 11.443l-11.455.011z" fill="#000000" fill-opacity=".049931"/><path d="M1381.458 49.951l17.182 18.327m-17.182 0l17.182-18.327-17.182 18.327zm47.537-9.164c0 5.656-4.654 10.31-10.309 10.31-5.656 0-10.31-4.654-10.31-10.31 0-5.655 4.654-10.309 10.31-10.309 5.651 0 10.303 4.648 10.309 10.299v.01zm114.547 0c0 5.656-4.654 10.31-10.309 10.31-5.656 0-10.309-4.654-10.309-10.31 0-5.655 4.653-10.309 10.309-10.309 5.652 0 10.304 4.648 10.309 10.299v.01z" fill="none" stroke="#000000" stroke-width=".57" stroke-dasharray="1.254346993743853,23.86735782499805" stroke-dashoffset="25.121705"/></g><g><path d="M1575 0h225v290.5h-225z" fill="#ffffff"/><path d="M1614.476 76.297h144.33v5.727h-144.33z" fill="#000000" fill-opacity=".07199"/><path d="M1615.049 82.024v45.819m0 0h28.637m-28.637 0v45.819m0 0h28.637m-28.637 0v45.819m0 0h28.637m-28.637 0V265.3m0 0h28.637m0-183.276v45.819m0 0h28.636m-28.636 0v45.819m0 0h28.636m-28.636 0v45.819m0 0h28.636m-28.636 0V265.3m0 0h28.636m0-183.276v45.819m0 0h28.637m-28.637 0v45.819m0 0h28.637m-28.637 0v45.819m0 0h28.637m-28.637 0V265.3m0 0h28.637m0-183.276v45.819m0 0h28.637m-28.637 0v45.819m0 0h28.637m-28.637 0v45.819m0 0h28.637m-28.637 0V265.3m0 0h28.637m0-183.276v45.819m0 0h28.637m-28.637 0v45.819m0 0h28.637m-28.637 0v45.819m0 0h28.637m-28.637 0V265.3m0 0h28.637m0-183.276v45.819m0 0v45.819m0 0v45.819m0 0V265.3v-45.819z" fill="none" stroke="#000000" stroke-width="1.15" stroke-dasharray="3.2984924440658685,42.52050755593414" stroke-dashoffset="45.819"/><path d="M1672.322 150.752h11.455c0 6.284-5.171 11.455-11.455 11.455-6.283 0-11.454-5.171-11.454-11.455s5.171-11.454 11.454-11.454c6.28 0 11.449 5.163 11.455 11.443m17.182.011h11.455c0 6.284-5.171 11.455-11.455 11.455s-11.454-5.171-11.454-11.455 5.17-11.454 11.454-11.454c6.28 0 11.449 5.163 11.455 11.443m17.182-45.808h11.455c0 6.284-5.171 11.455-11.455 11.455s-11.455-5.171-11.455-11.455 5.171-11.454 11.455-11.454c6.28 0 11.449 5.163 11.455 11.443l-11.455.011z" fill="#000000" fill-opacity=".07199"/><path d="M1606.458 49.951l17.182 18.327m-17.182 0l17.182-18.327-17.182 18.327zm47.537-9.164c0 5.656-4.654 10.31-10.309 10.31-5.656 0-10.31-4.654-10.31-10.31 0-5.655 4.654-10.309 10.31-10.309 5.651 0 10.303 4.648 10.309 10.299v.01zm114.547 0c0 5.656-4.654 10.31-10.309 10.31-5.656 0-10.309-4.654-10.309-10.31 0-5.655 4.653-10.309 10.309-10.309 5.652 0 10.304 4.648 10.309 10.299v.01z" fill="none" stroke="#000000" stroke-width=".57" stroke-dasharray="1.8085020084827972,23.313202810259106" stroke-dashoffset="25.121705"/></g><g><path d="M1800 0h225v290.5h-225z" fill="#ffffff"/><path d="M1839.476 76.297h144.33v5.727h-144.33z" fill="#000000" fill-opacity=".099743"/><path d="M1840.049 82.024v45.819m0 0h28.637m-28.637 0v45.819m0 0h28.637m-28.637 0v45.819m0 0h28.637m-28.637 0V265.3m0 0h28.637m0-183.276v45.819m0 0h28.636m-28.636 0v45.819m0 0h28.636m-28.636 0v45.819m0 0h28.636m-28.636 0V265.3m0 0h28.636m0-183.276v45.819m0 0h28.637m-28.637 0v45.819m0 0h28.637m-28.637 0v45.819m0 0h28.637m-28.637 0V265.3m0 0h28.637m0-183.276v45.819m0 0h28.637m-28.637 0v45.819m0 0h28.637m-28.637 0v45.819m0 0h28.637m-28.637 0V265.3m0 0h28.637m0-183.276v45.819m0 0h28.637m-28.637 0v45.819m0 0h28.637m-28.637 0v45.819m0 0h28.637m-28.637 0V265.3m0 0h28.637m0-183.276v45.819m0 0v45.819m0 0v45.819m0 0V265.3v-45.819z" fill="none" stroke="#000000" stroke-width="1.15" stroke-dasharray="4.570120996178327,41.24887900382168" stroke-dashoffset="45.819"/><path d="M1897.322 150.752h11.455c0 6.284-5.171 11.455-11.455 11.455-6.283 0-11.454-5.171-11.454-11.455s5.171-11.454 11.454-11.454c6.28 0 11.449 5.163 11.455 11.443m17.182.011h11.455c0 6.284-5.171 11.455-11.455 11.455s-11.454-5.171-11.454-11.455 5.17-11.454 11.454-11.454c6.28 0 11.449 5.163 11.455 11.443m17.182-45.808h11.455c0 6.284-5.171 11.455-11.455 11.455s-11.455-5.171-11.455-11.455 5.171-11.454 11.455-11.454c6.28 0 11.449 5.163 11.455 11.443l-11.455.011z" fill="#000000" fill-opacity=".099743"/><path d="M1831.458 49.951l17.182 18.327m-17.182 0l17.182-18.327-17.182 18.327zm47.537-9.164c0 5.656-4.654 10.31-10.309 10.31-5.656 0-10.31-4.654-10.31-10.31 0-5.655 4.654-10.309 10.31-10.309 5.651 0 10.303 4.648 10.309 10.299v.01zm114.547 0c0 5.656-4.654 10.31-10.309 10.31-5.656 0-10.309-4.654-10.309-10.31 0-5.655 4.653-10.309 10.309-10.309 5.652 0 10.304 4.648 10.309 10.299v.01z" fill="none" stroke="#000000" stroke-width=".57" stroke-dasharray="2.505712273334787,22.615992545407117" stroke-dashoffset="25.121705"/></g><g><path d="M2025 0h225v290.5h-225z" fill="#ffffff"/><path d="M2064.476 76.297h144.33v5.727h-144.33z" fill="#000000" fill-opacity=".133947"/><path d="M2065.049 82.024v45.819m0 0h28.637m-28.637 0v45.819m0 0h28.637m-28.637 0v45.819m0 0h28.637m-28.637 0V265.3m0 0h28.637m0-183.276v45.819m0 0h28.636m-28.636 0v45.819m0 0h28.636m-28.636 0v45.819m0 0h28.636m-28.636 0V265.3m0 0h28.636m0-183.276v45.819m0 0h28.637m-28.637 0v45.819m0 0h28.637m-28.637 0v45.819m0 0h28.637m-28.637 0V265.3m0 0h28.637m0-183.276v45.819m0 0h28.637m-28.637 0v45.819m0 0h28.637m-28.637 0v45.819m0 0h28.637m-28.637 0V265.3m0 0h28.637m0-183.276v45.819m0 0h28.637m-28.637 0v45.819m0 0h28.637m-28.637 0v45.819m0 0h28.637m-28.637 0V265.3m0 0h28.637m0-183.276v45.819m0 0v45.819m0 0v45.819m0 0V265.3v-45.819z" fill="none" stroke="#000000" stroke-width="1.15" stroke-dasharray="6.137307287212275,39.68169271278772" stroke-dashoffset="45.819"/><path d="M2122.322 150.752h11.455c0 6.284-5.171 11.455-11.455 11.455-6.283 0-11.454-5.171-11.454-11.455s5.171-11.454 11.454-11.454c6.28 0 11.449 5.163 11.455 11.443m17.182.011h11.455c0 6.284-5.171 11.455-11.455 11.455s-11.454-5.171-11.454-11.455 5.17-11.454 11.454-11.454c6.28 0 11.449 5.163 11.455 11.443m17.182-45.808h11.455c0 6.284-5.171 11.455-11.455 11.455s-11.455-5.171-11.455-11.455 5.171-11.454 11.455-11.454c6.28 0 11.449 5.163 11.455 11.443l-11.455.011z" fill="#000000" fill-opacity=".133947"/><path d="M2056.458 49.951l17.182 18.327m-17.182 0l17.182-18.327-17.182 18.327zm47.537-9.164c0 5.656-4.654 10.31-10.309 10.31-5.656 0-10.31-4.654-10.31-10.31 0-5.655 4.654-10.309 10.31-10.309 5.651 0 10.303 4.648 10.309 10.299v.01zm114.547 0c0 5.656-4.654 10.31-10.309 10.31-5.656 0-10.309-4.654-10.309-10.31 0-5.655 4.653-10.309 10.309-10.309 5.652 0 10.304 4.648 10.309 10.299v.01z" fill="none" stroke="#000000" stroke-width=".57" stroke-dasharray="3.3649713448844456,21.756733473857455" stroke-dashoffset="25.121705"/></g><g><path d="M2250 0h225v290.5h-225z" fill="#ffffff"/><path d="M2289.476 76.297h144.33v5.727h-144.33z" fill="#000000" fill-opacity=".175168"/><path d="M2290.049 82.024v45.819m0 0h28.637m-28.637 0v45.819m0 0h28.637m-28.637 0v45.819m0 0h28.637m-28.637 0V265.3m0 0h28.637m0-183.276v45.819m0 0h28.636m-28.636 0v45.819m0 0h28.636m-28.636 0v45.819m0 0h28.636m-28.636 0V265.3m0 0h28.636m0-183.276v45.819m0 0h28.637m-28.637 0v45.819m0 0h28.637m-28.637 0v45.819m0 0h28.637m-28.637 0V265.3m0 0h28.637m0-183.276v45.819m0 0h28.637m-28.637 0v45.819m0 0h28.637m-28.637 0v45.819m0 0h28.637m-28.637 0V265.3m0 0h28.637m0-183.276v45.819m0 0h28.637m-28.637 0v45.819m0 0h28.637m-28.637 0v45.819m0 0h28.637m-28.637 0V265.3m0 0h28.637m0-183.276v45.819m0 0v45.819m0 0v45.819m0 0V265.3v-45.819z" fill="none" stroke="#000000" stroke-width="1.15" stroke-dasharray="8.026036224968042,37.79296377503196" stroke-dashoffset="45.819"/><path d="M2347.322 150.752h11.455c0 6.284-5.171 11.455-11.455 11.455-6.283 0-11.454-5.171-11.454-11.455s5.171-11.454 11.454-11.454c6.28 0 11.449 5.163 11.455 11.443m17.182.011h11.455c0 6.284-5.171 11.455-11.455 11.455s-11.454-5.171-11.454-11.455 5.17-11.454 11.454-11.454c6.28 0 11.449 5.163 11.455 11.443m17.182-45.808h11.455c0 6.284-5.171 11.455-11.455 11.455s-11.455-5.171-11.455-11.455 5.171-11.454 11.455-11.454c6.28 0 11.449 5.163 11.455 11.443l-11.455.011z" fill="#000000" fill-opacity=".175168"/><path d="M2281.458 49.951l17.182 18.327m-17.182 0l17.182-18.327-17.182 18.327zm47.537-9.164c0 5.656-4.654 10.31-10.309 10.31-5.656 0-10.31-4.654-10.31-10.31 0-5.655 4.654-10.309 10.31-10.309 5.651 0 10.303 4.648 10.309 10.299v.01zm114.547 0c0 5.656-4.654 10.31-10.309 10.31-5.656 0-10.309-4.654-10.309-10.31 0-5.655 4.653-10.309 10.309-10.309 5.652 0 10.304 4.648 10.309 10.299v.01z" fill="none" stroke="#000000" stroke-width=".57" stroke-dasharray="4.400526264391993,20.72117855434991" stroke-dashoffset="25.121705"/></g><g><path d="M2475 0h225v290.5h-225z" fill="#ffffff"/><path d="M2514.476 76.297h144.33v5.727h-144.33z" fill="#000000" fill-opacity=".223475"/><path d="M2515.049 82.024v45.819m0 0h28.637m-28.637 0v45.819m0 0h28.637m-28.637 0v45.819m0 0h28.637m-28.637 0V265.3m0 0h28.637m0-183.276v45.819m0 0h28.636m-28.636 0v45.819m0 0h28.636m-28.636 0v45.819m0 0h28.636m-28.636 0V265.3m0 0h28.636m0-183.276v45.819m0 0h28.637m-28.637 0v45.819m0 0h28.637m-28.637 0v45.819m0 0h28.637m-28.637 0V265.3m0 0h28.637m0-183.276v45.819m0 0h28.637m-28.637 0v45.819m0 0h28.637m-28.637 0v45.819m0 0h28.637m-28.637 0V265.3m0 0h28.637m0-183.276v45.819m0 0h28.637m-28.637 0v45.819m0 0h28.637m-28.637 0v45.819m0 0h28.637m-28.637 0V265.3m0 0h28.637m0-183.276v45.819m0 0v45.819m0 0v45.819m0 0V265.3v-45.819z" fill="none" stroke="#000000" stroke-width="1.15" stroke-dasharray="10.239401323953931,35.57959867604607" stroke-dashoffset="45.819"/><path d="M2572.322 150.752h11.455c0 6.284-5.171 11.455-11.455 11.455-6.283 0-11.454-5.171-11.454-11.455s5.171-11.454 11.454-11.454c6.28 0 11.449 5.163 11.455 11.443m17.182.011h11.455c0 6.284-5.171 11.455-11.455 11.455s-11.454-5.171-11.454-11.455 5.17-11.454 11.454-11.454c6.28 0 11.449 5.163 11.455 11.443m17.182-45.808h11.455c0 6.284-5.171 11.455-11.455 11.455s-11.455-5.171-11.455-11.455 5.171-11.454 11.455-11.454c6.28 0 11.449 5.163 11.455 11.443l-11.455.011z" fill="#000000" fill-opacity=".223475"/><path d="M2506.458 49.951l17.182 18.327m-17.182 0l17.182-18.327-17.182 18.327zm47.537-9.164c0 5.656-4.654 10.31-10.309 10.31-5.656 0-10.31-4.654-10.31-10.31 0-5.655 4.654-10.309 10.31-10.309 5.651 0 10.303 4.648 10.309 10.299v.01zm114.547 0c0 5.656-4.654 10.31-10.309 10.31-5.656 0-10.309-4.654-10.309-10.31 0-5.655 4.653-10.309 10.309-10.309 5.652 0 10.304 4.648 10.309 10.299v.01z" fill="none" stroke="#000000" stroke-width=".57" stroke-dasharray="5.614073148279222,19.507631670462683" stroke-dashoffset="25.121705"/></g><g><path d="M2700 0h225v290.5h-225z" fill="#ffffff"/><path d="M2739.476 76.297h144.33v5.727h-144.33z" fill="#000000" fill-opacity=".278054"/><path d="M2740.049 82.024v45.819m0 0h28.637m-28.637 0v45.819m0 0h28.637m-28.637 0v45.819m0 0h28.637m-28.637 0V265.3m0 0h28.637m0-183.276v45.819m0 0h28.636m-28.636 0v45.819m0 0h28.636m-28.636 0v45.819m0 0h28.636m-28.636 0V265.3m0 0h28.636m0-183.276v45.819m0 0h28.637m-28.637 0v45.819m0 0h28.637m-28.637 0v45.819m0 0h28.637m-28.637 0V265.3m0 0h28.637m0-183.276v45.819m0 0h28.637m-28.637 0v45.819m0 0h28.637m-28.637 0v45.819m0 0h28.637m-28.637 0V265.3m0 0h28.637m0-183.276v45.819m0 0h28.637m-28.637 0v45.819m0 0h28.637m-28.637 0v45.819m0 0h28.637m-28.637 0V265.3m0 0h28.637m0-183.276v45.819m0 0v45.819m0 0v45.819m0 0V265.3v-45.819z" fill="none" stroke="#000000" stroke-width="1.15" stroke-dasharray="12.740135023201672,33.078864976798336" stroke-dashoffset="45.819"/><path d="M2797.322 150.752h11.455c0 6.284-5.171 11.455-11.455 11.455-6.283 0-11.454-5.171-11.454-11.455s5.171-11.454 11.454-11.454c6.28 0 11.449 5.163 11.455 11.443m17.182.011h11.455c0 6.284-5.171 11.455-11.455 11.455s-11.454-5.171-11.454-11.455 5.17-11.454 11.454-11.454c6.28 0 11.449 5.163 11.455 11.443m17.182-45.808h11.455c0 6.284-5.171 11.455-11.455 11.455s-11.455-5.171-11.455-11.455 5.171-11.454 11.455-11.454c6.28 0 11.449 5.163 11.455 11.443l-11.455.011z" fill="#000000" fill-opacity=".278054"/><path d="M2731.458 49.951l17.182 18.327m-17.182 0l17.182-18.327-17.182 18.327zm47.537-9.164c0 5.656-4.654 10.31-10.309 10.31-5.656 0-10.31-4.654-10.31-10.31 0-5.655 4.654-10.309 10.31-10.309 5.651 0 10.303 4.648 10.309 10.299v.01zm114.547 0c0 5.656-4.654 10.31-10.309 10.31-5.656 0-10.309-4.654-10.309-10.31 0-5.655 4.653-10.309 10.309-10.309 5.652 0 10.304 4.648 10.309 10.299v.01z" fill="none" stroke="#000000" stroke-width=".57" stroke-dasharray="6.985178886570809,18.136525932171097" stroke-dashoffset="25.121705"/></g><g><path d="M2925 0h225v290.5h-225z" fill="#ffffff"/><path d="M2964.476 76.297h144.33v5.727h-144.33z" fill="#000000" fill-opacity=".337007"/><path d="M2965.049 82.024v45.819m0 0h28.637m-28.637 0v45.819m0 0h28.637m-28.637 0v45.819m0 0h28.637m-28.637 0V265.3m0 0h28.637m0-183.276v45.819m0 0h28.636m-28.636 0v45.819m0 0h28.636m-28.636 0v45.819m0 0h28.636m-28.636 0V265.3m0 0h28.636m0-183.276v45.819m0 0h28.637m-28.637 0v45.819m0 0h28.637m-28.637 0v45.819m0 0h28.637m-28.637 0V265.3m0 0h28.637m0-183.276v45.819m0 0h28.637m-28.637 0v45.819m0 0h28.637m-28.637 0v45.819m0 0h28.637m-28.637 0V265.3m0 0h28.637m0-183.276v45.819m0 0h28.637m-28.637 0v45.819m0 0h28.637m-28.637 0v45.819m0 0h28.637m-28.637 0V265.3m0 0h28.637m0-183.276v45.819m0 0v45.819m0 0v45.819m0 0V265.3v-45.819z" fill="none" stroke="#000000" stroke-width="1.15" stroke-dasharray="15.441315135433582,30.377684864566422" stroke-dashoffset="45.819"/><path d="M3022.322 150.752h11.455c0 6.284-5.171 11.455-11.455 11.455-6.283 0-11.454-5.171-11.454-11.455s5.171-11.454 11.454-11.454c6.28 0 11.449 5.163 11.455 11.443m17.182.011h11.455c0 6.284-5.171 11.455-11.455 11.455s-11.454-5.171-11.454-11.455 5.17-11.454 11.454-11.454c6.28 0 11.449 5.163 11.455 11.443m17.182-45.808h11.455c0 6.284-5.171 11.455-11.455 11.455s-11.455-5.171-11.455-11.455 5.171-11.454 11.455-11.454c6.28 0 11.449 5.163 11.455 11.443l-11.455.011z" fill="#000000" fill-opacity=".337007"/><path d="M2956.458 49.951l17.182 18.327m-17.182 0l17.182-18.327-17.182 18.327zm47.537-9.164c0 5.656-4.654 10.31-10.309 10.31-5.656 0-10.31-4.654-10.31-10.31 0-5.655 4.654-10.309 10.31-10.309 5.651 0 10.303 4.648 10.309 10.299v.01zm114.547 0c0 5.656-4.654 10.31-10.309 10.31-5.656 0-10.309-4.654-10.309-10.31 0-5.655 4.653-10.309 10.309-10.309 5.652 0 10.304 4.648 10.309 10.299v.01z" fill="none" stroke="#000000" stroke-width=".57" stroke-dasharray="8.466185661964122,16.655519156777785" stroke-dashoffset="25.121705"/></g><g><path d="M3150 0h225v290.5h-225z" fill="#ffffff"/><path d="M3189.476 76.297h144.33v5.727h-144.33z" fill="#000000" fill-opacity=".397648"/><path d="M3190.049 82.024v45.819m0 0h28.637m-28.637 0v45.819m0 0h28.637m-28.637 0v45.819m0 0h28.637m-28.637 0V265.3m0 0h28.637m0-183.276v45.819m0 0h28.636m-28.636 0v45.819m0 0h28.636m-28.636 0v45.819m0 0h28.636m-28.636 0V265.3m0 0h28.636m0-183.276v45.819m0 0h28.637m-28.637 0v45.819m0 0h28.637m-28.637 0v45.819m0 0h28.637m-28.637 0V265.3m0 0h28.637m0-183.276v45.819m0 0h28.637m-28.637 0v45.819m0 0h28.637m-28.637 0v45.819m0 0h28.637m-28.637 0V265.3m0 0h28.637m0-183.276v45.819m0 0h28.637m-28.637 0v45.819m0 0h28.637m-28.637 0v45.819m0 0h28.637m-28.637 0V265.3m0 0h28.637m0-183.276v45.819m0 0v45.819m0 0v45.819m0 0V265.3v-45.819z" fill="none" stroke="#000000" stroke-width="1.15" stroke-dasharray="18.21982245767587,27.59917754232413" stroke-dashoffset="45.819"/><path d="M3247.322 150.752h11.455c0 6.284-5.171 11.455-11.455 11.455-6.283 0-11.454-5.171-11.454-11.455s5.171-11.454 11.454-11.454c6.28 0 11.449 5.163 11.455 11.443m17.182.011h11.455c0 6.284-5.171 11.455-11.455 11.455s-11.454-5.171-11.454-11.455 5.17-11.454 11.454-11.454c6.28 0 11.449 5.163 11.455 11.443m17.182-45.808h11.455c0 6.284-5.171 11.455-11.455 11.455s-11.455-5.171-11.455-11.455 5.171-11.454 11.455-11.454c6.28 0 11.449 5.163 11.455 11.443l-11.455.011z" fill="#000000" fill-opacity=".397648"/><path d="M3181.458 49.951l17.182 18.327m-17.182 0l17.182-18.327-17.182 18.327zm47.537-9.164c0 5.656-4.654 10.31-10.309 10.31-5.656 0-10.31-4.654-10.31-10.31 0-5.655 4.654-10.309 10.31-10.309 5.651 0 10.303 4.648 10.309 10.299v.01zm114.547 0c0 5.656-4.654 10.31-10.309 10.31-5.656 0-10.309-4.654-10.309-10.31 0-5.655 4.653-10.309 10.309-10.309 5.652 0 10.304 4.648 10.309 10.299v.01z" fill="none" stroke="#000000" stroke-width=".57" stroke-dasharray="9.98958950722665,15.132115311515255" stroke-dashoffset="25.121705"/></g><g><path d="M3375 0h225v290.5h-225z" fill="#ffffff"/><path d="M3414.476 76.297h144.33v5.727h-144.33z" fill="#000000" fill-opacity=".457252"/><path d="M3415.049 82.024v45.819m0 0h28.637m-28.637 0v45.819m0 0h28.637m-28.637 0v45.819m0 0h28.637m-28.637 0V265.3m0 0h28.637m0-183.276v45.819m0 0h28.636m-28.636 0v45.819m0 0h28.636m-28.636 0v45.819m0 0h28.636m-28.636 0V265.3m0 0h28.636m0-183.276v45.819m0 0h28.637m-28.637 0v45.819m0 0h28.637m-28.637 0v45.819m0 0h28.637m-28.637 0V265.3m0 0h28.637m0-183.276v45.819m0 0h28.637m-28.637 0v45.819m0 0h28.637m-28.637 0v45.819m0 0h28.637m-28.637 0V265.3m0 0h28.637m0-183.276v45.819m0 0h28.637m-28.637 0v45.819m0 0h28.637m-28.637 0v45.819m0 0h28.637m-28.637 0V265.3m0 0h28.637m0-183.276v45.819m0 0v45.819m0 0v45.819m0 0V265.3v-45.819z" fill="none" stroke="#000000" stroke-width="1.15" stroke-dasharray="20.950817466669236,24.868182533330767" stroke-dashoffset="45.819"/><path d="M3472.322 150.752h11.455c0 6.284-5.171 11.455-11.455 11.455-6.283 0-11.454-5.171-11.454-11.455s5.171-11.454 11.454-11.454c6.28 0 11.449 5.163 11.455 11.443m17.182.011h11.455c0 6.284-5.171 11.455-11.455 11.455s-11.454-5.171-11.454-11.455 5.17-11.454 11.454-11.454c6.28 0 11.449 5.163 11.455 11.443m17.182-45.808h11.455c0 6.284-5.171 11.455-11.455 11.455s-11.455-5.171-11.455-11.455 5.171-11.454 11.455-11.454c6.28 0 11.449 5.163 11.455 11.443l-11.455.011z" fill="#000000" fill-opacity=".457252"/><path d="M3406.458 49.951l17.182 18.327m-17.182 0l17.182-18.327-17.182 18.327zm47.537-9.164c0 5.656-4.654 10.31-10.309 10.31-5.656 0-10.31-4.654-10.31-10.31 0-5.655 4.654-10.309 10.31-10.309 5.651 0 10.303 4.648 10.309 10.299v.01zm114.547 0c0 5.656-4.654 10.31-10.309 10.31-5.656 0-10.309-4.654-10.309-10.31 0-5.655 4.653-10.309 10.309-10.309 5.652 0 10.304 4.648 10.309 10.299v.01z" fill="none" stroke="#000000" stroke-width=".57" stroke-dasharray="11.48694323553562,13.634761583206284" stroke-dashoffset="25.121705"/></g><g><path d="M3600 0h225v290.5h-225z" fill="#ffffff"/><path d="M3639.476 76.297h144.33v5.727h-144.33z" fill="#000000" fill-opacity=".513758"/><path d="M3640.049 82.024v45.819m0 0h28.637m-28.637 0v45.819m0 0h28.637m-28.637 0v45.819m0 0h28.637m-28.637 0V265.3m0 0h28.637m0-183.276v45.819m0 0h28.636m-28.636 0v45.819m0 0h28.636m-28.636 0v45.819m0 0h28.636m-28.636 0V265.3m0 0h28.636m0-183.276v45.819m0 0h28.637m-28.637 0v45.819m0 0h28.637m-28.637 0v45.819m0 0h28.637m-28.637 0V265.3m0 0h28.637m0-183.276v45.819m0 0h28.637m-28.637 0v45.819m0 0h28.637m-28.637 0v45.819m0 0h28.637m-28.637 0V265.3m0 0h28.637m0-183.276v45.819m0 0h28.637m-28.637 0v45.819m0 0h28.637m-28.637 0v45.819m0 0h28.637m-28.637 0V265.3m0 0h28.637m0-183.276v45.819m0 0v45.819m0 0v45.819m0 0V265.3v-45.819z" fill="none" stroke="#000000" stroke-width="1.15" stroke-dasharray="23.539879646496647,22.279120353503355" stroke-dashoffset="45.819"/><path d="M3697.322 150.752h11.455c0 6.284-5.171 11.455-11.455 11.455-6.283 0-11.454-5.171-11.454-11.455s5.171-11.454 11.454-11.454c6.28 0 11.449 5.163 11.455 11.443m17.182.011h11.455c0 6.284-5.171 11.455-11.455 11.455s-11.454-5.171-11.454-11.455 5.17-11.454 11.454-11.454c6.28 0 11.449 5.163 11.455 11.443m17.182-45.808h11.455c0 6.284-5.171 11.455-11.455 11.455s-11.455-5.171-11.455-11.455 5.171-11.454 11.455-11.454c6.28 0 11.449 5.163 11.455 11.443l-11.455.011z" fill="#000000" fill-opacity=".513758"/><path d="M3631.458 49.951l17.182 18.327m-17.182 0l17.182-18.327-17.182 18.327zm47.537-9.164c0 5.656-4.654 10.31-10.309 10.31-5.656 0-10.31-4.654-10.31-10.31 0-5.655 4.654-10.309 10.31-10.309 5.651 0 10.303 4.648 10.309 10.299v.01zm114.547 0c0 5.656-4.654 10.31-10.309 10.31-5.656 0-10.309-4.654-10.309-10.31 0-5.655 4.653-10.309 10.309-10.309 5.652 0 10.304 4.648 10.309 10.299v.01z" fill="none" stroke="#000000" stroke-width=".57" stroke-dasharray="12.90647783557038,12.215226983171524" stroke-dashoffset="25.121705"/></g><g><path d="M3825 0h225v290.5h-225z" fill="#ffffff"/><path d="M3864.476 76.297h144.33v5.727h-144.33z" fill="#000000" fill-opacity=".566009"/><path d="M3865.049 82.024v45.819m0 0h28.637m-28.637 0v45.819m0 0h28.637m-28.637 0v45.819m0 0h28.637m-28.637 0V265.3m0 0h28.637m0-183.276v45.819m0 0h28.636m-28.636 0v45.819m0 0h28.636m-28.636 0v45.819m0 0h28.636m-28.636 0V265.3m0 0h28.636m0-183.276v45.819m0 0h28.637m-28.637 0v45.819m0 0h28.637m-28.637 0v45.819m0 0h28.637m-28.637 0V265.3m0 0h28.637m0-183.276v45.819m0 0h28.637m-28.637 0v45.819m0 0h28.637m-28.637 0v45.819m0 0h28.637m-28.637 0V265.3m0 0h28.637m0-183.276v45.819m0 0h28.637m-28.637 0v45.819m0 0h28.637m-28.637 0v45.819m0 0h28.637m-28.637 0V265.3m0 0h28.637m0-183.276v45.819m0 0v45.819m0 0v45.819m0 0V265.3v-45.819z" fill="none" stroke="#000000" stroke-width="1.15" stroke-dasharray="25.933974589516964,19.88502541048304" stroke-dashoffset="45.819"/><path d="M3922.322 150.752h11.455c0 6.284-5.171 11.455-11.455 11.455-6.283 0-11.454-5.171-11.454-11.455s5.171-11.454 11.454-11.454c6.28 0 11.449 5.163 11.455 11.443m17.182.011h11.455c0 6.284-5.171 11.455-11.455 11.455s-11.454-5.171-11.454-11.455 5.17-11.454 11.454-11.454c6.28 0 11.449 5.163 11.455 11.443m17.182-45.808h11.455c0 6.284-5.171 11.455-11.455 11.455s-11.455-5.171-11.455-11.455 5.171-11.454 11.455-11.454c6.28 0 11.449 5.163 11.455 11.443l-11.455.011z" fill="#000000" fill-opacity=".566009"/><path d="M3856.458 49.951l17.182 18.327m-17.182 0l17.182-18.327-17.182 18.327zm47.537-9.164c0 5.656-4.654 10.31-10.309 10.31-5.656 0-10.31-4.654-10.31-10.31 0-5.655 4.654-10.309 10.31-10.309 5.651 0 10.303 4.648 10.309 10.299v.01zm114.547 0c0 5.656-4.654 10.31-10.309 10.31-5.656 0-10.309-4.654-10.309-10.31 0-5.655 4.653-10.309 10.309-10.309 5.652 0 10.304 4.648 10.309 10.299v.01z" fill="none" stroke="#000000" stroke-width=".57" stroke-dasharray="14.219115528811157,10.902589289930747" stroke-dashoffset="25.121705"/></g><g><path d="M4050 0h225v290.5h-225z" fill="#ffffff"/><path d="M4089.476 76.297h144.33v5.727h-144.33z" fill="#000000" fill-opacity=".613595"/><path d="M4090.049 82.024v45.819m0 0h28.637m-28.637 0v45.819m0 0h28.637m-28.637 0v45.819m0 0h28.637m-28.637 0V265.3m0 0h28.637m0-183.276v45.819m0 0h28.636m-28.636 0v45.819m0 0h28.636m-28.636 0v45.819m0 0h28.636m-28.636 0V265.3m0 0h28.636m0-183.276v45.819m0 0h28.637m-28.637 0v45.819m0 0h28.637m-28.637 0v45.819m0 0h28.637m-28.637 0V265.3m0 0h28.637m0-183.276v45.819m0 0h28.637m-28.637 0v45.819m0 0h28.637m-28.637 0v45.819m0 0h28.637m-28.637 0V265.3m0 0h28.637m0-183.276v45.819m0 0h28.637m-28.637 0v45.819m0 0h28.637m-28.637 0v45.819m0 0h28.637m-28.637 0V265.3m0 0h28.637m0-183.276v45.819m0 0v45.819m0 0v45.819m0 0V265.3v-45.819z" fill="none" stroke="#000000" stroke-width="1.15" stroke-dasharray="28.114297690308714,17.70470230969129" stroke-dashoffset="45.819"/><path d="M4147.322 150.752h11.455c0 6.284-5.171 11.455-11.455 11.455-6.283 0-11.454-5.171-11.454-11.455s5.171-11.454 11.454-11.454c6.28 0 11.449 5.163 11.455 11.443m17.182.011h11.455c0 6.284-5.171 11.455-11.455 11.455s-11.454-5.171-11.454-11.455 5.17-11.454 11.454-11.454c6.28 0 11.449 5.163 11.455 11.443m17.182-45.808h11.455c0 6.284-5.171 11.455-11.455 11.455s-11.455-5.171-11.455-11.455 5.171-11.454 11.455-11.454c6.28 0 11.449 5.163 11.455 11.443l-11.455.011z" fill="#000000" fill-opacity=".613595"/><path d="M4081.458 49.951l17.182 18.327m-17.182 0l17.182-18.327-17.182 18.327zm47.537-9.164c0 5.656-4.654 10.31-10.309 10.31-5.656 0-10.31-4.654-10.31-10.31 0-5.655 4.654-10.309 10.31-10.309 5.651 0 10.303 4.648 10.309 10.299v.01zm114.547 0c0 5.656-4.654 10.31-10.309 10.31-5.656 0-10.309-4.654-10.309-10.31 0-5.655 4.653-10.309 10.309-10.309 5.652 0 10.304 4.648 10.309 10.299v.01z" fill="none" stroke="#000000" stroke-width=".57" stroke-dasharray="15.414546100136903,9.707158718605001" stroke-dashoffset="25.121705"/></g><g><path d="M4275 0h225v290.5h-225z" fill="#ffffff"/><path d="M4314.476 76.297h144.33v5.727h-144.33z" fill="#000000" fill-opacity=".656572"/><path d="M4315.049 82.024v45.819m0 0h28.637m-28.637 0v45.819m0 0h28.637m-28.637 0v45.819m0 0h28.637m-28.637 0V265.3m0 0h28.637m0-183.276v45.819m0 0h28.636m-28.636 0v45.819m0 0h28.636m-28.636 0v45.819m0 0h28.636m-28.636 0V265.3m0 0h28.636m0-183.276v45.819m0 0h28.637m-28.637 0v45.819m0 0h28.637m-28.637 0v45.819m0 0h28.637m-28.637 0V265.3m0 0h28.637m0-183.276v45.819m0 0h28.637m-28.637 0v45.819m0 0h28.637m-28.637 0v45.819m0 0h28.637m-28.637 0V265.3m0 0h28.637m0-183.276v45.819m0 0h28.637m-28.637 0v45.819m0 0h28.637m-28.637 0v45.819m0 0h28.637m-28.637 0V265.3m0 0h28.637m0-183.276v45.819m0 0v45.819m0 0v45.819m0 0V265.3v-45.819z" fill="none" stroke="#000000" stroke-width="1.15" stroke-dasharray="30.08347748535512,15.735522514644881" stroke-dashoffset="45.819"/><path d="M4372.322 150.752h11.455c0 6.284-5.171 11.455-11.455 11.455-6.283 0-11.454-5.171-11.454-11.455s5.171-11.454 11.454-11.454c6.28 0 11.449 5.163 11.455 11.443m17.182.011h11.455c0 6.284-5.171 11.455-11.455 11.455s-11.454-5.171-11.454-11.455 5.17-11.454 11.454-11.454c6.28 0 11.449 5.163 11.455 11.443m17.182-45.808h11.455c0 6.284-5.171 11.455-11.455 11.455s-11.455-5.171-11.455-11.455 5.171-11.454 11.455-11.454c6.28 0 11.449 5.163 11.455 11.443l-11.455.011z" fill="#000000" fill-opacity=".656572"/><path d="M4306.458 49.951l17.182 18.327m-17.182 0l17.182-18.327-17.182 18.327zm47.537-9.164c0 5.656-4.654 10.31-10.309 10.31-5.656 0-10.31-4.654-10.31-10.31 0-5.655 4.654-10.309 10.31-10.309 5.651 0 10.303 4.648 10.309 10.299v.01zm114.547 0c0 5.656-4.654 10.31-10.309 10.31-5.656 0-10.309-4.654-10.309-10.31 0-5.655 4.653-10.309 10.309-10.309 5.652 0 10.304 4.648 10.309 10.299v.01z" fill="none" stroke="#000000" stroke-width=".57" stroke-dasharray="16.494210727173428,8.627494091568476" stroke-dashoffset="25.121705"/></g><g><path d="M4500 0h225v290.5h-225z" fill="#ffffff"/><path d="M4539.476 76.297h144.33v5.727h-144.33z" fill="#000000" fill-opacity=".695235"/><path d="M4540.049 82.024v45.819m0 0h28.637m-28.637 0v45.819m0 0h28.637m-28.637 0v45.819m0 0h28.637m-28.637 0V265.3m0 0h28.637m0-183.276v45.819m0 0h28.636m-28.636 0v45.819m0 0h28.636m-28.636 0v45.819m0 0h28.636m-28.636 0V265.3m0 0h28.636m0-183.276v45.819m0 0h28.637m-28.637 0v45.819m0 0h28.637m-28.637 0v45.819m0 0h28.637m-28.637 0V265.3m0 0h28.637m0-183.276v45.819m0 0h28.637m-28.637 0v45.819m0 0h28.637m-28.637 0v45.819m0 0h28.637m-28.637 0V265.3m0 0h28.637m0-183.276v45.819m0 0h28.637m-28.637 0v45.819m0 0h28.637m-28.637 0v45.819m0 0h28.637m-28.637 0V265.3m0 0h28.637m0-183.276v45.819m0 0v45.819m0 0v45.819m0 0V265.3v-45.819z" fill="none" stroke="#000000" stroke-width="1.15" stroke-dasharray="31.85496511770673,13.964034882293273" stroke-dashoffset="45.819"/><path d="M4597.322 150.752h11.455c0 6.284-5.171 11.455-11.455 11.455-6.283 0-11.454-5.171-11.454-11.455s5.171-11.454 11.454-11.454c6.28 0 11.449 5.163 11.455 11.443m17.182.011h11.455c0 6.284-5.171 11.455-11.455 11.455s-11.454-5.171-11.454-11.455 5.17-11.454 11.454-11.454c6.28 0 11.449 5.163 11.455 11.443m17.182-45.808h11.455c0 6.284-5.171 11.455-11.455 11.455s-11.455-5.171-11.455-11.455 5.171-11.454 11.455-11.454c6.28 0 11.449 5.163 11.455 11.443l-11.455.011z" fill="#000000" fill-opacity=".695235"/><path d="M4531.458 49.951l17.182 18.327m-17.182 0l17.182-18.327-17.182 18.327zm47.537-9.164c0 5.656-4.654 10.31-10.309 10.31-5.656 0-10.31-4.654-10.31-10.31 0-5.655 4.654-10.309 10.31-10.309 5.651 0 10.303 4.648 10.309 10.299v.01zm114.547 0c0 5.656-4.654 10.31-10.309 10.31-5.656 0-10.309-4.654-10.309-10.31 0-5.655 4.653-10.309 10.309-10.309 5.652 0 10.304 4.648 10.309 10.299v.01z" fill="none" stroke="#000000" stroke-width=".57" stroke-dasharray="17.46548442127389,7.656220397468014" stroke-dashoffset="25.121705"/></g><g><path d="M4725 0h225v290.5h-225z" fill="#ffffff"/><path d="M4764.476 76.297h144.33v5.727h-144.33z" fill="#000000" fill-opacity=".729967"/><path d="M4765.049 82.024v45.819m0 0h28.637m-28.637 0v45.819m0 0h28.637m-28.637 0v45.819m0 0h28.637m-28.637 0V265.3m0 0h28.637m0-183.276v45.819m0 0h28.636m-28.636 0v45.819m0 0h28.636m-28.636 0v45.819m0 0h28.636m-28.636 0V265.3m0 0h28.636m0-183.276v45.819m0 0h28.637m-28.637 0v45.819m0 0h28.637m-28.637 0v45.819m0 0h28.637m-28.637 0V265.3m0 0h28.637m0-183.276v45.819m0 0h28.637m-28.637 0v45.819m0 0h28.637m-28.637 0v45.819m0 0h28.637m-28.637 0V265.3m0 0h28.637m0-183.276v45.819m0 0h28.637m-28.637 0v45.819m0 0h28.637m-28.637 0v45.819m0 0h28.637m-28.637 0V265.3m0 0h28.637m0-183.276v45.819m0 0v45.819m0 0v45.819m0 0V265.3v-45.819z" fill="none" stroke="#000000" stroke-width="1.15" stroke-dasharray="33.44637597654261,12.37262402345739" stroke-dashoffset="45.819"/><path d="M4822.322 150.752h11.455c0 6.284-5.171 11.455-11.455 11.455-6.283 0-11.454-5.171-11.454-11.455s5.171-11.454 11.454-11.454c6.28 0 11.449 5.163 11.455 11.443m17.182.011h11.455c0 6.284-5.171 11.455-11.455 11.455s-11.454-5.171-11.454-11.455 5.17-11.454 11.454-11.454c6.28 0 11.449 5.163 11.455 11.443m17.182-45.808h11.455c0 6.284-5.171 11.455-11.455 11.455s-11.455-5.171-11.455-11.455 5.171-11.454 11.455-11.454c6.28 0 11.449 5.163 11.455 11.443l-11.455.011z" fill="#000000" fill-opacity=".729967"/><path d="M4756.458 49.951l17.182 18.327m-17.182 0l17.182-18.327-17.182 18.327zm47.537-9.164c0 5.656-4.654 10.31-10.309 10.31-5.656 0-10.31-4.654-10.31-10.31 0-5.655 4.654-10.309 10.31-10.309 5.651 0 10.303 4.648 10.309 10.299v.01zm114.547 0c0 5.656-4.654 10.31-10.309 10.31-5.656 0-10.309-4.654-10.309-10.31 0-5.655 4.653-10.309 10.309-10.309 5.652 0 10.304 4.648 10.309 10.299v.01z" fill="none" stroke="#000000" stroke-width=".57" stroke-dasharray="18.338025372429865,6.78367944631204" stroke-dashoffset="25.121705"/></g><g><path d="M4950 0h225v290.5h-225z" fill="#ffffff"/><path d="M4989.476 76.297h144.33v5.727h-144.33z" fill="#000000" fill-opacity=".761167"/><path d="M4990.049 82.024v45.819m0 0h28.637m-28.637 0v45.819m0 0h28.637m-28.637 0v45.819m0 0h28.637m-28.637 0V265.3m0 0h28.637m0-183.276v45.819m0 0h28.636m-28.636 0v45.819m0 0h28.636m-28.636 0v45.819m0 0h28.636m-28.636 0V265.3m0 0h28.636m0-183.276v45.819m0 0h28.637m-28.637 0v45.819m0 0h28.637m-28.637 0v45.819m0 0h28.637m-28.637 0V265.3m0 0h28.637m0-183.276v45.819m0 0h28.637m-28.637 0v45.819m0 0h28.637m-28.637 0v45.819m0 0h28.637m-28.637 0V265.3m0 0h28.637m0-183.276v45.819m0 0h28.637m-28.637 0v45.819m0 0h28.637m-28.637 0v45.819m0 0h28.637m-28.637 0V265.3m0 0h28.637m0-183.276v45.819m0 0v45.819m0 0v45.819m0 0V265.3v-45.819z" fill="none" stroke="#000000" stroke-width="1.15" stroke-dasharray="34.875932696818786,10.943067303181218" stroke-dashoffset="45.819"/><path d="M5047.322 150.752h11.455c0 6.284-5.171 11.455-11.455 11.455-6.283 0-11.454-5.171-11.454-11.455s5.171-11.454 11.454-11.454c6.28 0 11.449 5.163 11.455 11.443m17.182.011h11.455c0 6.284-5.171 11.455-11.455 11.455s-11.454-5.171-11.454-11.455 5.17-11.454 11.454-11.454c6.28 0 11.449 5.163 11.455 11.443m17.182-45.808h11.455c0 6.284-5.171 11.455-11.455 11.455s-11.455-5.171-11.455-11.455 5.171-11.454 11.455-11.454c6.28 0 11.449 5.163 11.455 11.443l-11.455.011z" fill="#000000" fill-opacity=".761167"/><path d="M4981.458 49.951l17.182 18.327m-17.182 0l17.182-18.327-17.182 18.327zm47.537-9.164c0 5.656-4.654 10.31-10.309 10.31-5.656 0-10.31-4.654-10.31-10.31 0-5.655 4.654-10.309 10.31-10.309 5.651 0 10.303 4.648 10.309 10.299v.01zm114.547 0c0 5.656-4.654 10.31-10.309 10.31-5.656 0-10.309-4.654-10.309-10.31 0-5.655 4.653-10.309 10.309-10.309 5.652 0 10.304 4.648 10.309 10.299v.01z" fill="none" stroke="#000000" stroke-width=".57" stroke-dasharray="19.121824712189063,5.9998801065528395" stroke-dashoffset="25.121705"/></g><g><path d="M5175 0h225v290.5h-225z" fill="#ffffff"/><path d="M5214.476 76.297h144.33v5.727h-144.33z" fill="#000000" fill-opacity=".78921"/><path d="M5215.049 82.024v45.819m0 0h28.637m-28.637 0v45.819m0 0h28.637m-28.637 0v45.819m0 0h28.637m-28.637 0V265.3m0 0h28.637m0-183.276v45.819m0 0h28.636m-28.636 0v45.819m0 0h28.636m-28.636 0v45.819m0 0h28.636m-28.636 0V265.3m0 0h28.636m0-183.276v45.819m0 0h28.637m-28.637 0v45.819m0 0h28.637m-28.637 0v45.819m0 0h28.637m-28.637 0V265.3m0 0h28.637m0-183.276v45.819m0 0h28.637m-28.637 0v45.819m0 0h28.637m-28.637 0v45.819m0 0h28.637m-28.637 0V265.3m0 0h28.637m0-183.276v45.819m0 0h28.637m-28.637 0v45.819m0 0h28.637m-28.637 0v45.819m0 0h28.637m-28.637 0V265.3m0 0h28.637m0-183.276v45.819m0 0v45.819m0 0v45.819m0 0V265.3v-45.819z" fill="none" stroke="#000000" stroke-width="1.15" stroke-dasharray="36.16080292887233,9.65819707112767" stroke-dashoffset="45.819"/><path d="M5272.322 150.752h11.455c0 6.284-5.171 11.455-11.455 11.455-6.283 0-11.454-5.171-11.454-11.455s5.171-11.454 11.454-11.454c6.28 0 11.449 5.163 11.455 11.443m17.182.011h11.455c0 6.284-5.171 11.455-11.455 11.455s-11.454-5.171-11.454-11.455 5.17-11.454 11.454-11.454c6.28 0 11.449 5.163 11.455 11.443m17.182-45.808h11.455c0 6.284-5.171 11.455-11.455 11.455s-11.455-5.171-11.455-11.455 5.171-11.454 11.455-11.454c6.28 0 11.449 5.163 11.455 11.443l-11.455.011z" fill="#000000" fill-opacity=".78921"/><path d="M5206.458 49.951l17.182 18.327m-17.182 0l17.182-18.327-17.182 18.327zm47.537-9.164c0 5.656-4.654 10.31-10.309 10.31-5.656 0-10.31-4.654-10.31-10.31 0-5.655 4.654-10.309 10.31-10.309 5.651 0 10.303 4.648 10.309 10.299v.01zm114.547 0c0 5.656-4.654 10.31-10.309 10.31-5.656 0-10.309-4.654-10.309-10.31 0-5.655 4.653-10.309 10.309-10.309 5.652 0 10.304 4.648 10.309 10.299v.01z" fill="none" stroke="#000000" stroke-width=".57" stroke-dasharray="19.826295143670276,5.295409675071628" stroke-dashoffset="25.121705"/></g><g><path d="M5400 0h225v290.5h-225z" fill="#ffffff"/><path d="M5439.476 76.297h144.33v5.727h-144.33z" fill="#000000" fill-opacity=".814432"/><path d="M5440.049 82.024v45.819m0 0h28.637m-28.637 0v45.819m0 0h28.637m-28.637 0v45.819m0 0h28.637m-28.637 0V265.3m0 0h28.637m0-183.276v45.819m0 0h28.636m-28.636 0v45.819m0 0h28.636m-28.636 0v45.819m0 0h28.636m-28.636 0V265.3m0 0h28.636m0-183.276v45.819m0 0h28.637m-28.637 0v45.819m0 0h28.637m-28.637 0v45.819m0 0h28.637m-28.637 0V265.3m0 0h28.637m0-183.276v45.819m0 0h28.637m-28.637 0v45.819m0 0h28.637m-28.637 0v45.819m0 0h28.637m-28.637 0V265.3m0 0h28.637m0-183.276v45.819m0 0h28.637m-28.637 0v45.819m0 0h28.637m-28.637 0v45.819m0 0h28.637m-28.637 0V265.3m0 0h28.637m0-183.276v45.819m0 0v45.819m0 0v45.819m0 0V265.3v-45.819z" fill="none" stroke="#000000" stroke-width="1.15" stroke-dasharray="37.31645779252229,8.502542207477712" stroke-dashoffset="45.819"/><path d="M5497.322 150.752h11.455c0 6.284-5.171 11.455-11.455 11.455-6.283 0-11.454-5.171-11.454-11.455s5.171-11.454 11.454-11.454c6.28 0 11.449 5.163 11.455 11.443m17.182.011h11.455c0 6.284-5.171 11.455-11.455 11.455s-11.454-5.171-11.454-11.455 5.17-11.454 11.454-11.454c6.28 0 11.449 5.163 11.455 11.443m17.182-45.808h11.455c0 6.284-5.171 11.455-11.455 11.455s-11.455-5.171-11.455-11.455 5.171-11.454 11.455-11.454c6.28 0 11.449 5.163 11.455 11.443l-11.455.011z" fill="#000000" fill-opacity=".814432"/><path d="M5431.458 49.951l17.182 18.327m-17.182 0l17.182-18.327-17.182 18.327zm47.537-9.164c0 5.656-4.654 10.31-10.309 10.31-5.656 0-10.31-4.654-10.31-10.31 0-5.655 4.654-10.309 10.31-10.309 5.651 0 10.303 4.648 10.309 10.299v.01zm114.547 0c0 5.656-4.654 10.31-10.309 10.31-5.656 0-10.309-4.654-10.309-10.31 0-5.655 4.653-10.309 10.309-10.309 5.652 0 10.304 4.648 10.309 10.299v.01z" fill="none" stroke="#000000" stroke-width=".57" stroke-dasharray="20.459919193888695,4.66178562485321" stroke-dashoffset="25.121705"/></g><g><path d="M5625 0h225v290.5h-225z" fill="#ffffff"/><path d="M5664.476 76.297h144.33v5.727h-144.33z" fill="#000000" fill-opacity=".837132"/><path d="M5665.049 82.024v45.819m0 0h28.637m-28.637 0v45.819m0 0h28.637m-28.637 0v45.819m0 0h28.637m-28.637 0V265.3m0 0h28.637m0-183.276v45.819m0 0h28.636m-28.636 0v45.819m0 0h28.636m-28.636 0v45.819m0 0h28.636m-28.636 0V265.3m0 0h28.636m0-183.276v45.819m0 0h28.637m-28.637 0v45.819m0 0h28.637m-28.637 0v45.819m0 0h28.637m-28.637 0V265.3m0 0h28.637m0-183.276v45.819m0 0h28.637m-28.637 0v45.819m0 0h28.637m-28.637 0v45.819m0 0h28.637m-28.637 0V265.3m0 0h28.637m0-183.276v45.819m0 0h28.637m-28.637 0v45.819m0 0h28.637m-28.637 0v45.819m0 0h28.637m-28.637 0V265.3m0 0h28.637m0-183.276v45.819m0 0v45.819m0 0v45.819m0 0V265.3v-45.819z" fill="none" stroke="#000000" stroke-width="1.15" stroke-dasharray="38.35653491179502,7.46246508820498" stroke-dashoffset="45.819"/><path d="M5722.322 150.752h11.455c0 6.284-5.171 11.455-11.455 11.455-6.283 0-11.454-5.171-11.454-11.455s5.171-11.454 11.454-11.454c6.28 0 11.449 5.163 11.455 11.443m17.182.011h11.455c0 6.284-5.171 11.455-11.455 11.455s-11.454-5.171-11.454-11.455 5.17-11.454 11.454-11.454c6.28 0 11.449 5.163 11.455 11.443m17.182-45.808h11.455c0 6.284-5.171 11.455-11.455 11.455s-11.455-5.171-11.455-11.455 5.171-11.454 11.455-11.454c6.28 0 11.449 5.163 11.455 11.443l-11.455.011z" fill="#000000" fill-opacity=".837132"/><path d="M5656.458 49.951l17.182 18.327m-17.182 0l17.182-18.327-17.182 18.327zm47.537-9.164c0 5.656-4.654 10.31-10.309 10.31-5.656 0-10.31-4.654-10.31-10.31 0-5.655 4.654-10.309 10.31-10.309 5.651 0 10.303 4.648 10.309 10.299v.01zm114.547 0c0 5.656-4.654 10.31-10.309 10.31-5.656 0-10.309-4.654-10.309-10.31 0-5.655 4.653-10.309 10.309-10.309 5.652 0 10.304 4.648 10.309 10.299v.01z" fill="none" stroke="#000000" stroke-width=".57" stroke-dasharray="21.030174118245334,4.091530700496568" stroke-dashoffset="25.121705"/></g><g><path d="M5850 0h225v290.5h-225z" fill="#ffffff"/><path d="M5889.476 76.297h144.33v5.727h-144.33z" fill="#000000" fill-opacity=".857568"/><path d="M5890.049 82.024v45.819m0 0h28.637m-28.637 0v45.819m0 0h28.637m-28.637 0v45.819m0 0h28.637m-28.637 0V265.3m0 0h28.637m0-183.276v45.819m0 0h28.636m-28.636 0v45.819m0 0h28.636m-28.636 0v45.819m0 0h28.636m-28.636 0V265.3m0 0h28.636m0-183.276v45.819m0 0h28.637m-28.637 0v45.819m0 0h28.637m-28.637 0v45.819m0 0h28.637m-28.637 0V265.3m0 0h28.637m0-183.276v45.819m0 0h28.637m-28.637 0v45.819m0 0h28.637m-28.637 0v45.819m0 0h28.637m-28.637 0V265.3m0 0h28.637m0-183.276v45.819m0 0h28.637m-28.637 0v45.819m0 0h28.637m-28.637 0v45.819m0 0h28.637m-28.637 0V265.3m0 0h28.637m0-183.276v45.819m0 0v45.819m0 0v45.819m0 0V265.3v-45.819z" fill="none" stroke="#000000" stroke-width="1.15" stroke-dasharray="39.29292947312177,6.526070526878234" stroke-dashoffset="45.819"/><path d="M5947.322 150.752h11.455c0 6.284-5.171 11.455-11.455 11.455-6.283 0-11.454-5.171-11.454-11.455s5.171-11.454 11.454-11.454c6.28 0 11.449 5.163 11.455 11.443m17.182.011h11.455c0 6.284-5.171 11.455-11.455 11.455s-11.454-5.171-11.454-11.455 5.17-11.454 11.454-11.454c6.28 0 11.449 5.163 11.455 11.443m17.182-45.808h11.455c0 6.284-5.171 11.455-11.455 11.455s-11.455-5.171-11.455-11.455 5.171-11.454 11.455-11.454c6.28 0 11.449 5.163 11.455 11.443l-11.455.011z" fill="#000000" fill-opacity=".857568"/><path d="M5881.458 49.951l17.182 18.327m-17.182 0l17.182-18.327-17.182 18.327zm47.537-9.164c0 5.656-4.654 10.31-10.309 10.31-5.656 0-10.31-4.654-10.31-10.31 0-5.655 4.654-10.309 10.31-10.309 5.651 0 10.303 4.648 10.309 10.299v.01zm114.547 0c0 5.656-4.654 10.31-10.309 10.31-5.656 0-10.309-4.654-10.309-10.31 0-5.655 4.653-10.309 10.309-10.309 5.652 0 10.304 4.648 10.309 10.299v.01z" fill="none" stroke="#000000" stroke-width=".57" stroke-dasharray="21.54358182604179,3.578122992700112" stroke-dashoffset="25.121705"/></g><g><path d="M6075 0h225v290.5h-225z" fill="#ffffff"/><path d="M6114.476 76.297h144.33v5.727h-144.33z" fill="#000000" fill-opacity=".875968"/><path d="M6115.049 82.024v45.819m0 0h28.637m-28.637 0v45.819m0 0h28.637m-28.637 0v45.819m0 0h28.637m-28.637 0V265.3m0 0h28.637m0-183.276v45.819m0 0h28.636m-28.636 0v45.819m0 0h28.636m-28.636 0v45.819m0 0h28.636m-28.636 0V265.3m0 0h28.636m0-183.276v45.819m0 0h28.637m-28.637 0v45.819m0 0h28.637m-28.637 0v45.819m0 0h28.637m-28.637 0V265.3m0 0h28.637m0-183.276v45.819m0 0h28.637m-28.637 0v45.819m0 0h28.637m-28.637 0v45.819m0 0h28.637m-28.637 0V265.3m0 0h28.637m0-183.276v45.819m0 0h28.637m-28.637 0v45.819m0 0h28.637m-28.637 0v45.819m0 0h28.637m-28.637 0V265.3m0 0h28.637m0-183.276v45.819m0 0v45.819m0 0v45.819m0 0V265.3v-45.819z" fill="none" stroke="#000000" stroke-width="1.15" stroke-dasharray="40.135973643218314,5.6830263567816885" stroke-dashoffset="45.819"/><path d="M6172.322 150.752h11.455c0 6.284-5.171 11.455-11.455 11.455-6.283 0-11.454-5.171-11.454-11.455s5.171-11.454 11.454-11.454c6.28 0 11.449 5.163 11.455 11.443m17.182.011h11.455c0 6.284-5.171 11.455-11.455 11.455s-11.454-5.171-11.454-11.455 5.17-11.454 11.454-11.454c6.28 0 11.449 5.163 11.455 11.443m17.182-45.808h11.455c0 6.284-5.171 11.455-11.455 11.455s-11.455-5.171-11.455-11.455 5.171-11.454 11.455-11.454c6.28 0 11.449 5.163 11.455 11.443l-11.455.011z" fill="#000000" fill-opacity=".875968"/><path d="M6106.458 49.951l17.182 18.327m-17.182 0l17.182-18.327-17.182 18.327zm47.537-9.164c0 5.656-4.654 10.31-10.309 10.31-5.656 0-10.31-4.654-10.31-10.31 0-5.655 4.654-10.309 10.31-10.309 5.651 0 10.303 4.648 10.309 10.299v.01zm114.547 0c0 5.656-4.654 10.31-10.309 10.31-5.656 0-10.309-4.654-10.309-10.31 0-5.655 4.653-10.309 10.309-10.309 5.652 0 10.304 4.648 10.309 10.299v.01z" fill="none" stroke="#000000" stroke-width=".57" stroke-dasharray="22.005807251963933,3.1158975667779694" stroke-dashoffset="25.121705"/></g><g><path d="M6300 0h225v290.5h-225z" fill="#ffffff"/><path d="M6339.476 76.297h144.33v5.727h-144.33z" fill="#000000" fill-opacity=".892526"/><path d="M6340.049 82.024v45.819m0 0h28.637m-28.637 0v45.819m0 0h28.637m-28.637 0v45.819m0 0h28.637m-28.637 0V265.3m0 0h28.637m0-183.276v45.819m0 0h28.636m-28.636 0v45.819m0 0h28.636m-28.636 0v45.819m0 0h28.636m-28.636 0V265.3m0 0h28.636m0-183.276v45.819m0 0h28.637m-28.637 0v45.819m0 0h28.637m-28.637 0v45.819m0 0h28.637m-28.637 0V265.3m0 0h28.637m0-183.276v45.819m0 0h28.637m-28.637 0v45.819m0 0h28.637m-28.637 0v45.819m0 0h28.637m-28.637 0V265.3m0 0h28.637m0-183.276v45.819m0 0h28.637m-28.637 0v45.819m0 0h28.637m-28.637 0v45.819m0 0h28.637m-28.637 0V265.3m0 0h28.637m0-183.276v45.819m0 0v45.819m0 0v45.819m0 0V265.3v-45.819z" fill="none" stroke="#000000" stroke-width="1.15" stroke-dasharray="40.89463737801045,4.92436262198955" stroke-dashoffset="45.819"/><path d="M6397.322 150.752h11.455c0 6.284-5.171 11.455-11.455 11.455-6.283 0-11.454-5.171-11.454-11.455s5.171-11.454 11.454-11.454c6.28 0 11.449 5.163 11.455 11.443m17.182.011h11.455c0 6.284-5.171 11.455-11.455 11.455s-11.454-5.171-11.454-11.455 5.17-11.454 11.454-11.454c6.28 0 11.449 5.163 11.455 11.443m17.182-45.808h11.455c0 6.284-5.171 11.455-11.455 11.455s-11.455-5.171-11.455-11.455 5.171-11.454 11.455-11.454c6.28 0 11.449 5.163 11.455 11.443l-11.455.011z" fill="#000000" fill-opacity=".892526"/><path d="M6331.458 49.951l17.182 18.327m-17.182 0l17.182-18.327-17.182 18.327zm47.537-9.164c0 5.656-4.654 10.31-10.309 10.31-5.656 0-10.31-4.654-10.31-10.31 0-5.655 4.654-10.309 10.31-10.309 5.651 0 10.303 4.648 10.309 10.299v.01zm114.547 0c0 5.656-4.654 10.31-10.309 10.31-5.656 0-10.309-4.654-10.309-10.31 0-5.655 4.653-10.309 10.309-10.309 5.652 0 10.304 4.648 10.309 10.299v.01z" fill="none" stroke="#000000" stroke-width=".57" stroke-dasharray="22.421768455877864,2.699936362864039" stroke-dashoffset="25.121705"/></g><g><path d="M6525 0h225v290.5h-225z" fill="#ffffff"/><path d="M6564.476 76.297h144.33v5.727h-144.33z" fill="#000000" fill-opacity=".907412"/><path d="M6565.049 82.024v45.819m0 0h28.637m-28.637 0v45.819m0 0h28.637m-28.637 0v45.819m0 0h28.637m-28.637 0V265.3m0 0h28.637m0-183.276v45.819m0 0h28.636m-28.636 0v45.819m0 0h28.636m-28.636 0v45.819m0 0h28.636m-28.636 0V265.3m0 0h28.636m0-183.276v45.819m0 0h28.637m-28.637 0v45.819m0 0h28.637m-28.637 0v45.819m0 0h28.637m-28.637 0V265.3m0 0h28.637m0-183.276v45.819m0 0h28.637m-28.637 0v45.819m0 0h28.637m-28.637 0v45.819m0 0h28.637m-28.637 0V265.3m0 0h28.637m0-183.276v45.819m0 0h28.637m-28.637 0v45.819m0 0h28.637m-28.637 0v45.819m0 0h28.637m-28.637 0V265.3m0 0h28.637m0-183.276v45.819m0 0v45.819m0 0v45.819m0 0V265.3v-45.819z" fill="none" stroke="#000000" stroke-width="1.15" stroke-dasharray="41.576720679779555,4.242279320220446" stroke-dashoffset="45.819"/><path d="M6622.322 150.752h11.455c0 6.284-5.171 11.455-11.455 11.455-6.283 0-11.454-5.171-11.454-11.455s5.171-11.454 11.454-11.454c6.28 0 11.449 5.163 11.455 11.443m17.182.011h11.455c0 6.284-5.171 11.455-11.455 11.455s-11.454-5.171-11.454-11.455 5.17-11.454 11.454-11.454c6.28 0 11.449 5.163 11.455 11.443m17.182-45.808h11.455c0 6.284-5.171 11.455-11.455 11.455s-11.455-5.171-11.455-11.455 5.171-11.454 11.455-11.454c6.28 0 11.449 5.163 11.455 11.443l-11.455.011z" fill="#000000" fill-opacity=".907412"/><path d="M6556.458 49.951l17.182 18.327m-17.182 0l17.182-18.327-17.182 18.327zm47.537-9.164c0 5.656-4.654 10.31-10.309 10.31-5.656 0-10.31-4.654-10.31-10.31 0-5.655 4.654-10.309 10.31-10.309 5.651 0 10.303 4.648 10.309 10.299v.01zm114.547 0c0 5.656-4.654 10.31-10.309 10.31-5.656 0-10.309-4.654-10.309-10.31 0-5.655 4.653-10.309 10.309-10.309 5.652 0 10.304 4.648 10.309 10.299v.01z" fill="none" stroke="#000000" stroke-width=".57" stroke-dasharray="22.79574203384413,2.3259627848977735" stroke-dashoffset="25.121705"/></g><g><path d="M6750 0h225v290.5h-225z" fill="#ffffff"/><path d="M6789.476 76.297h144.33v5.727h-144.33z" fill="#000000" fill-opacity=".920776"/><path d="M6790.049 82.024v45.819m0 0h28.637m-28.637 0v45.819m0 0h28.637m-28.637 0v45.819m0 0h28.637m-28.637 0V265.3m0 0h28.637m0-183.276v45.819m0 0h28.636m-28.636 0v45.819m0 0h28.636m-28.636 0v45.819m0 0h28.636m-28.636 0V265.3m0 0h28.636m0-183.276v45.819m0 0h28.637m-28.637 0v45.819m0 0h28.637m-28.637 0v45.819m0 0h28.637m-28.637 0V265.3m0 0h28.637m0-183.276v45.819m0 0h28.637m-28.637 0v45.819m0 0h28.637m-28.637 0v45.819m0 0h28.637m-28.637 0V265.3m0 0h28.637m0-183.276v45.819m0 0h28.637m-28.637 0v45.819m0 0h28.637m-28.637 0v45.819m0 0h28.637m-28.637 0V265.3m0 0h28.637m0-183.276v45.819m0 0v45.819m0 0v45.819m0 0V265.3v-45.819z" fill="none" stroke="#000000" stroke-width="1.15" stroke-dasharray="42.18902562094946,3.629974379050543" stroke-dashoffset="45.819"/><path d="M6847.322 150.752h11.455c0 6.284-5.171 11.455-11.455 11.455-6.283 0-11.454-5.171-11.454-11.455s5.171-11.454 11.454-11.454c6.28 0 11.449 5.163 11.455 11.443m17.182.011h11.455c0 6.284-5.171 11.455-11.455 11.455s-11.454-5.171-11.454-11.455 5.17-11.454 11.454-11.454c6.28 0 11.449 5.163 11.455 11.443m17.182-45.808h11.455c0 6.284-5.171 11.455-11.455 11.455s-11.455-5.171-11.455-11.455 5.171-11.454 11.455-11.454c6.28 0 11.449 5.163 11.455 11.443l-11.455.011z" fill="#000000" fill-opacity=".920776"/><path d="M6781.458 49.951l17.182 18.327m-17.182 0l17.182-18.327-17.182 18.327zm47.537-9.164c0 5.656-4.654 10.31-10.309 10.31-5.656 0-10.31-4.654-10.31-10.31 0-5.655 4.654-10.309 10.31-10.309 5.651 0 10.303 4.648 10.309 10.299v.01zm114.547 0c0 5.656-4.654 10.31-10.309 10.31-5.656 0-10.309-4.654-10.309-10.31 0-5.655 4.653-10.309 10.309-10.309 5.652 0 10.304 4.648 10.309 10.299v.01z" fill="none" stroke="#000000" stroke-width=".57" stroke-dasharray="23.13145743555799,1.9902473831839123" stroke-dashoffset="25.121705"/></g><g><path d="M6975 0h225v290.5h-225z" fill="#ffffff"/><path d="M7014.476 76.297h144.33v5.727h-144.33z" fill="#000000" fill-opacity=".932746"/><path d="M7015.049 82.024v45.819m0 0h28.637m-28.637 0v45.819m0 0h28.637m-28.637 0v45.819m0 0h28.637m-28.637 0V265.3m0 0h28.637m0-183.276v45.819m0 0h28.636m-28.636 0v45.819m0 0h28.636m-28.636 0v45.819m0 0h28.636m-28.636 0V265.3m0 0h28.636m0-183.276v45.819m0 0h28.637m-28.637 0v45.819m0 0h28.637m-28.637 0v45.819m0 0h28.637m-28.637 0V265.3m0 0h28.637m0-183.276v45.819m0 0h28.637m-28.637 0v45.819m0 0h28.637m-28.637 0v45.819m0 0h28.637m-28.637 0V265.3m0 0h28.637m0-183.276v45.819m0 0h28.637m-28.637 0v45.819m0 0h28.637m-28.637 0v45.819m0 0h28.637m-28.637 0V265.3m0 0h28.637m0-183.276v45.819m0 0v45.819m0 0v45.819m0 0V265.3v-45.819z" fill="none" stroke="#000000" stroke-width="1.15" stroke-dasharray="42.737505127613694,3.081494872386308" stroke-dashoffset="45.819"/><path d="M7072.322 150.752h11.455c0 6.284-5.171 11.455-11.455 11.455-6.283 0-11.454-5.171-11.454-11.455s5.171-11.454 11.454-11.454c6.28 0 11.449 5.163 11.455 11.443m17.182.011h11.455c0 6.284-5.171 11.455-11.455 11.455s-11.454-5.171-11.454-11.455 5.17-11.454 11.454-11.454c6.28 0 11.449 5.163 11.455 11.443m17.182-45.808h11.455c0 6.284-5.171 11.455-11.455 11.455s-11.455-5.171-11.455-11.455 5.171-11.454 11.455-11.454c6.28 0 11.449 5.163 11.455 11.443l-11.455.011z" fill="#000000" fill-opacity=".932746"/><path d="M7006.458 49.951l17.182 18.327m-17.182 0l17.182-18.327-17.182 18.327zm47.537-9.164c0 5.656-4.654 10.31-10.309 10.31-5.656 0-10.31-4.654-10.31-10.31 0-5.655 4.654-10.309 10.31-10.309 5.651 0 10.303 4.648 10.309 10.299v.01zm114.547 0c0 5.656-4.654 10.31-10.309 10.31-5.656 0-10.309-4.654-10.309-10.31 0-5.655 4.653-10.309 10.309-10.309 5.652 0 10.304 4.648 10.309 10.299v.01z" fill="none" stroke="#000000" stroke-width=".57" stroke-dasharray="23.432178539587937,1.689526279153966" stroke-dashoffset="25.121705"/></g><g><path d="M7200 0h225v290.5h-225z" fill="#ffffff"/><path d="M7239.476 76.297h144.33v5.727h-144.33z" fill="#000000" fill-opacity=".943438"/><path d="M7240.049 82.024v45.819m0 0h28.637m-28.637 0v45.819m0 0h28.637m-28.637 0v45.819m0 0h28.637m-28.637 0V265.3m0 0h28.637m0-183.276v45.819m0 0h28.636m-28.636 0v45.819m0 0h28.636m-28.636 0v45.819m0 0h28.636m-28.636 0V265.3m0 0h28.636m0-183.276v45.819m0 0h28.637m-28.637 0v45.819m0 0h28.637m-28.637 0v45.819m0 0h28.637m-28.637 0V265.3m0 0h28.637m0-183.276v45.819m0 0h28.637m-28.637 0v45.819m0 0h28.637m-28.637 0v45.819m0 0h28.637m-28.637 0V265.3m0 0h28.637m0-183.276v45.819m0 0h28.637m-28.637 0v45.819m0 0h28.637m-28.637 0v45.819m0 0h28.637m-28.637 0V265.3m0 0h28.637m0-183.276v45.819m0 0v45.819m0 0v45.819m0 0V265.3v-45.819z" fill="none" stroke="#000000" stroke-width="1.15" stroke-dasharray="43.22738939107822,2.5916106089217803" stroke-dashoffset="45.819"/><path d="M7297.322 150.752h11.455c0 6.284-5.171 11.455-11.455 11.455-6.283 0-11.454-5.171-11.454-11.455s5.171-11.454 11.454-11.454c6.28 0 11.449 5.163 11.455 11.443m17.182.011h11.455c0 6.284-5.171 11.455-11.455 11.455s-11.454-5.171-11.454-11.455 5.17-11.454 11.454-11.454c6.28 0 11.449 5.163 11.455 11.443m17.182-45.808h11.455c0 6.284-5.171 11.455-11.455 11.455s-11.455-5.171-11.455-11.455 5.171-11.454 11.455-11.454c6.28 0 11.449 5.163 11.455 11.443l-11.455.011z" fill="#000000" fill-opacity=".943438"/><path d="M7231.458 49.951l17.182 18.327m-17.182 0l17.182-18.327-17.182 18.327zm47.537-9.164c0 5.656-4.654 10.31-10.309 10.31-5.656 0-10.31-4.654-10.31-10.31 0-5.655 4.654-10.309 10.31-10.309 5.651 0 10.303 4.648 10.309 10.299v.01zm114.547 0c0 5.656-4.654 10.31-10.309 10.31-5.656 0-10.309-4.654-10.309-10.31 0-5.655 4.653-10.309 10.309-10.309 5.652 0 10.304 4.648 10.309 10.299v.01z" fill="none" stroke="#000000" stroke-width=".57" stroke-dasharray="23.700772962471515,1.4209318562703885" stroke-dashoffset="25.121705"/></g><g><path d="M7425 0h225v290.5h-225z" fill="#ffffff"/><path d="M7464.476 76.297h144.33v5.727h-144.33z" fill="#000000" fill-opacity=".952952"/><path d="M7465.049 82.024v45.819m0 0h28.637m-28.637 0v45.819m0 0h28.637m-28.637 0v45.819m0 0h28.637m-28.637 0V265.3m0 0h28.637m0-183.276v45.819m0 0h28.636m-28.636 0v45.819m0 0h28.636m-28.636 0v45.819m0 0h28.636m-28.636 0V265.3m0 0h28.636m0-183.276v45.819m0 0h28.637m-28.637 0v45.819m0 0h28.637m-28.637 0v45.819m0 0h28.637m-28.637 0V265.3m0 0h28.637m0-183.276v45.819m0 0h28.637m-28.637 0v45.819m0 0h28.637m-28.637 0v45.819m0 0h28.637m-28.637 0V265.3m0 0h28.637m0-183.276v45.819m0 0h28.637m-28.637 0v45.819m0 0h28.637m-28.637 0v45.819m0 0h28.637m-28.637 0V265.3m0 0h28.637m0-183.276v45.819m0 0v45.819m0 0v45.819m0 0V265.3v-45.819z" fill="none" stroke="#000000" stroke-width="1.15" stroke-dasharray="43.663292298366194,2.1557077016338084" stroke-dashoffset="45.819"/><path d="M7522.322 150.752h11.455c0 6.284-5.171 11.455-11.455 11.455-6.283 0-11.454-5.171-11.454-11.455s5.171-11.454 11.454-11.454c6.28 0 11.449 5.163 11.455 11.443m17.182.011h11.455c0 6.284-5.171 11.455-11.455 11.455s-11.454-5.171-11.454-11.455 5.17-11.454 11.454-11.454c6.28 0 11.449 5.163 11.455 11.443m17.182-45.808h11.455c0 6.284-5.171 11.455-11.455 11.455s-11.455-5.171-11.455-11.455 5.171-11.454 11.455-11.454c6.28 0 11.449 5.163 11.455 11.443l-11.455.011z" fill="#000000" fill-opacity=".952952"/><path d="M7456.458 49.951l17.182 18.327m-17.182 0l17.182-18.327-17.182 18.327zm47.537-9.164c0 5.656-4.654 10.31-10.309 10.31-5.656 0-10.31-4.654-10.31-10.31 0-5.655 4.654-10.309 10.31-10.309 5.651 0 10.303 4.648 10.309 10.299v.01zm114.547 0c0 5.656-4.654 10.31-10.309 10.31-5.656 0-10.309-4.654-10.309-10.31 0-5.655 4.653-10.309 10.309-10.309 5.652 0 10.304 4.648 10.309 10.299v.01z" fill="none" stroke="#000000" stroke-width=".57" stroke-dasharray="23.939770412579982,1.1819344061619215" stroke-dashoffset="25.121705"/></g><g><path d="M7650 0h225v290.5h-225z" fill="#ffffff"/><path d="M7689.476 76.297h144.33v5.727h-144.33z" fill="#000000" fill-opacity=".961376"/><path d="M7690.049 82.024v45.819m0 0h28.637m-28.637 0v45.819m0 0h28.637m-28.637 0v45.819m0 0h28.637m-28.637 0V265.3m0 0h28.637m0-183.276v45.819m0 0h28.636m-28.636 0v45.819m0 0h28.636m-28.636 0v45.819m0 0h28.636m-28.636 0V265.3m0 0h28.636m0-183.276v45.819m0 0h28.637m-28.637 0v45.819m0 0h28.637m-28.637 0v45.819m0 0h28.637m-28.637 0V265.3m0 0h28.637m0-183.276v45.819m0 0h28.637m-28.637 0v45.819m0 0h28.637m-28.637 0v45.819m0 0h28.637m-28.637 0V265.3m0 0h28.637m0-183.276v45.819m0 0h28.637m-28.637 0v45.819m0 0h28.637m-28.637 0v45.819m0 0h28.637m-28.637 0V265.3m0 0h28.637m0-183.276v45.819m0 0v45.819m0 0v45.819m0 0V265.3v-45.819z" fill="none" stroke="#000000" stroke-width="1.15" stroke-dasharray="44.04930067828475,1.7696993217152528" stroke-dashoffset="45.819"/><path d="M7747.322 150.752h11.455c0 6.284-5.171 11.455-11.455 11.455-6.283 0-11.454-5.171-11.454-11.455s5.171-11.454 11.454-11.454c6.28 0 11.449 5.163 11.455 11.443m17.182.011h11.455c0 6.284-5.171 11.455-11.455 11.455s-11.454-5.171-11.454-11.455 5.17-11.454 11.454-11.454c6.28 0 11.449 5.163 11.455 11.443m17.182-45.808h11.455c0 6.284-5.171 11.455-11.455 11.455s-11.455-5.171-11.455-11.455 5.171-11.454 11.455-11.454c6.28 0 11.449 5.163 11.455 11.443l-11.455.011z" fill="#000000" fill-opacity=".961376"/><path d="M7681.458 49.951l17.182 18.327m-17.182 0l17.182-18.327-17.182 18.327zm47.537-9.164c0 5.656-4.654 10.31-10.309 10.31-5.656 0-10.31-4.654-10.31-10.31 0-5.655 4.654-10.309 10.31-10.309 5.651 0 10.303 4.648 10.309 10.299v.01zm114.547 0c0 5.656-4.654 10.31-10.309 10.31-5.656 0-10.309-4.654-10.309-10.31 0-5.655 4.653-10.309 10.309-10.309 5.652 0 10.304 4.648 10.309 10.299v.01z" fill="none" stroke="#000000" stroke-width=".57" stroke-dasharray="24.151411622075493,0.9702931966664122" stroke-dashoffset="25.121705"/></g><g><path d="M7875 0h225v290.5h-225z" fill="#ffffff"/><path d="M7914.476 76.297h144.33v5.727h-144.33z" fill="#000000" fill-opacity=".968791"/><path d="M7915.049 82.024v45.819m0 0h28.637m-28.637 0v45.819m0 0h28.637m-28.637 0v45.819m0 0h28.637m-28.637 0V265.3m0 0h28.637m0-183.276v45.819m0 0h28.636m-28.636 0v45.819m0 0h28.636m-28.636 0v45.819m0 0h28.636m-28.636 0V265.3m0 0h28.636m0-183.276v45.819m0 0h28.637m-28.637 0v45.819m0 0h28.637m-28.637 0v45.819m0 0h28.637m-28.637 0V265.3m0 0h28.637m0-183.276v45.819m0 0h28.637m-28.637 0v45.819m0 0h28.637m-28.637 0v45.819m0 0h28.637m-28.637 0V265.3m0 0h28.637m0-183.276v45.819m0 0h28.637m-28.637 0v45.819m0 0h28.637m-28.637 0v45.819m0 0h28.637m-28.637 0V265.3m0 0h28.637m0-183.276v45.819m0 0v45.819m0 0v45.819m0 0V265.3v-45.819z" fill="none" stroke="#000000" stroke-width="1.15" stroke-dasharray="44.389049064868665,1.4299509351313364" stroke-dashoffset="45.819"/><path d="M7972.322 150.752h11.455c0 6.284-5.171 11.455-11.455 11.455-6.283 0-11.454-5.171-11.454-11.455s5.171-11.454 11.454-11.454c6.28 0 11.449 5.163 11.455 11.443m17.182.011h11.455c0 6.284-5.171 11.455-11.455 11.455s-11.454-5.171-11.454-11.455 5.17-11.454 11.454-11.454c6.28 0 11.449 5.163 11.455 11.443m17.182-45.808h11.455c0 6.284-5.171 11.455-11.455 11.455s-11.455-5.171-11.455-11.455 5.171-11.454 11.455-11.454c6.28 0 11.449 5.163 11.455 11.443l-11.455.011z" fill="#000000" fill-opacity=".968791"/><path d="M7906.458 49.951l17.182 18.327m-17.182 0l17.182-18.327-17.182 18.327zm47.537-9.164c0 5.656-4.654 10.31-10.309 10.31-5.656 0-10.31-4.654-10.31-10.31 0-5.655 4.654-10.309 10.31-10.309 5.651 0 10.303 4.648 10.309 10.299v.01zm114.547 0c0 5.656-4.654 10.31-10.309 10.31-5.656 0-10.309-4.654-10.309-10.31 0-5.655 4.653-10.309 10.309-10.309 5.652 0 10.304 4.648 10.309 10.299v.01z" fill="none" stroke="#000000" stroke-width=".57" stroke-dasharray="24.337689338315588,0.7840154804263163" stroke-dashoffset="25.121705"/></g><g><path d="M8100 0h225v290.5h-225z" fill="#ffffff"/><path d="M8139.476 76.297h144.33v5.727h-144.33z" fill="#000000" fill-opacity=".975268"/><path d="M8140.049 82.024v45.819m0 0h28.637m-28.637 0v45.819m0 0h28.637m-28.637 0v45.819m0 0h28.637m-28.637 0V265.3m0 0h28.637m0-183.276v45.819m0 0h28.636m-28.636 0v45.819m0 0h28.636m-28.636 0v45.819m0 0h28.636m-28.636 0V265.3m0 0h28.636m0-183.276v45.819m0 0h28.637m-28.637 0v45.819m0 0h28.637m-28.637 0v45.819m0 0h28.637m-28.637 0V265.3m0 0h28.637m0-183.276v45.819m0 0h28.637m-28.637 0v45.819m0 0h28.637m-28.637 0v45.819m0 0h28.637m-28.637 0V265.3m0 0h28.637m0-183.276v45.819m0 0h28.637m-28.637 0v45.819m0 0h28.637m-28.637 0v45.819m0 0h28.637m-28.637 0V265.3m0 0h28.637m0-183.276v45.819m0 0v45.819m0 0v45.819m0 0V265.3v-45.819z" fill="none" stroke="#000000" stroke-width="1.15" stroke-dasharray="44.68578238734781,1.1332176126521982" stroke-dashoffset="45.819"/><path d="M8197.322 150.752h11.455c0 6.284-5.171 11.455-11.455 11.455-6.283 0-11.454-5.171-11.454-11.455s5.171-11.454 11.454-11.454c6.28 0 11.449 5.163 11.455 11.443m17.182.011h11.455c0 6.284-5.171 11.455-11.455 11.455s-11.454-5.171-11.454-11.455 5.17-11.454 11.454-11.454c6.28 0 11.449 5.163 11.455 11.443m17.182-45.808h11.455c0 6.284-5.171 11.455-11.455 11.455s-11.455-5.171-11.455-11.455 5.171-11.454 11.455-11.454c6.28 0 11.449 5.163 11.455 11.443l-11.455.011z" fill="#000000" fill-opacity=".975268"/><path d="M8131.458 49.951l17.182 18.327m-17.182 0l17.182-18.327-17.182 18.327zm47.537-9.164c0 5.656-4.654 10.31-10.309 10.31-5.656 0-10.31-4.654-10.31-10.31 0-5.655 4.654-10.309 10.31-10.309 5.651 0 10.303 4.648 10.309 10.299v.01zm114.547 0c0 5.656-4.654 10.31-10.309 10.31-5.656 0-10.309-4.654-10.309-10.31 0-5.655 4.653-10.309 10.309-10.309 5.652 0 10.304 4.648 10.309 10.299v.01z" fill="none" stroke="#000000" stroke-width=".57" stroke-dasharray="24.500382695595437,0.621322123146466" stroke-dashoffset="25.121705"/></g><g><path d="M8325 0h225v290.5h-225z" fill="#ffffff"/><path d="M8364.476 76.297h144.33v5.727h-144.33z" fill="#000000" fill-opacity=".980868"/><path d="M8365.049 82.024v45.819m0 0h28.637m-28.637 0v45.819m0 0h28.637m-28.637 0v45.819m0 0h28.637m-28.637 0V265.3m0 0h28.637m0-183.276v45.819m0 0h28.636m-28.636 0v45.819m0 0h28.636m-28.636 0v45.819m0 0h28.636m-28.636 0V265.3m0 0h28.636m0-183.276v45.819m0 0h28.637m-28.637 0v45.819m0 0h28.637m-28.637 0v45.819m0 0h28.637m-28.637 0V265.3m0 0h28.637m0-183.276v45.819m0 0h28.637m-28.637 0v45.819m0 0h28.637m-28.637 0v45.819m0 0h28.637m-28.637 0V265.3m0 0h28.637m0-183.276v45.819m0 0h28.637m-28.637 0v45.819m0 0h28.637m-28.637 0v45.819m0 0h28.637m-28.637 0V265.3m0 0h28.637m0-183.276v45.819m0 0v45.819m0 0v45.819m0 0V265.3v-45.819z" fill="none" stroke="#000000" stroke-width="1.15" stroke-dasharray="44.94240864934301,0.8765913506569932" stroke-dashoffset="45.819"/><path d="M8422.322 150.752h11.455c0 6.284-5.171 11.455-11.455 11.455-6.283 0-11.454-5.171-11.454-11.455s5.171-11.454 11.454-11.454c6.28 0 11.449 5.163 11.455 11.443m17.182.011h11.455c0 6.284-5.171 11.455-11.455 11.455s-11.454-5.171-11.454-11.455 5.17-11.454 11.454-11.454c6.28 0 11.449 5.163 11.455 11.443m17.182-45.808h11.455c0 6.284-5.171 11.455-11.455 11.455s-11.455-5.171-11.455-11.455 5.171-11.454 11.455-11.454c6.28 0 11.449 5.163 11.455 11.443l-11.455.011z" fill="#000000" fill-opacity=".980868"/><path d="M8356.458 49.951l17.182 18.327m-17.182 0l17.182-18.327-17.182 18.327zm47.537-9.164c0 5.656-4.654 10.31-10.309 10.31-5.656 0-10.31-4.654-10.31-10.31 0-5.655 4.654-10.309 10.31-10.309 5.651 0 10.303 4.648 10.309 10.299v.01zm114.547 0c0 5.656-4.654 10.31-10.309 10.31-5.656 0-10.309-4.654-10.309-10.31 0-5.655 4.653-10.309 10.309-10.309 5.652 0 10.304 4.648 10.309 10.299v.01z" fill="none" stroke="#000000" stroke-width=".57" stroke-dasharray="24.641086098170366,0.48061872057153715" stroke-dashoffset="25.121705"/></g><g><path d="M8550 0h225v290.5h-225z" fill="#ffffff"/><path d="M8589.476 76.297h144.33v5.727h-144.33z" fill="#000000" fill-opacity=".985651"/><path d="M8590.049 82.024v45.819m0 0h28.637m-28.637 0v45.819m0 0h28.637m-28.637 0v45.819m0 0h28.637m-28.637 0V265.3m0 0h28.637m0-183.276v45.819m0 0h28.636m-28.636 0v45.819m0 0h28.636m-28.636 0v45.819m0 0h28.636m-28.636 0V265.3m0 0h28.636m0-183.276v45.819m0 0h28.637m-28.637 0v45.819m0 0h28.637m-28.637 0v45.819m0 0h28.637m-28.637 0V265.3m0 0h28.637m0-183.276v45.819m0 0h28.637m-28.637 0v45.819m0 0h28.637m-28.637 0v45.819m0 0h28.637m-28.637 0V265.3m0 0h28.637m0-183.276v45.819m0 0h28.637m-28.637 0v45.819m0 0h28.637m-28.637 0v45.819m0 0h28.637m-28.637 0V265.3m0 0h28.637m0-183.276v45.819m0 0v45.819m0 0v45.819m0 0V265.3v-45.819z" fill="none" stroke="#000000" stroke-width="1.15" stroke-dasharray="45.16154332460629,0.6574566753937121" stroke-dashoffset="45.819"/><path d="M8647.322 150.752h11.455c0 6.284-5.171 11.455-11.455 11.455-6.283 0-11.454-5.171-11.454-11.455s5.171-11.454 11.454-11.454c6.28 0 11.449 5.163 11.455 11.443m17.182.011h11.455c0 6.284-5.171 11.455-11.455 11.455s-11.454-5.171-11.454-11.455 5.17-11.454 11.454-11.454c6.28 0 11.449 5.163 11.455 11.443m17.182-45.808h11.455c0 6.284-5.171 11.455-11.455 11.455s-11.455-5.171-11.455-11.455 5.171-11.454 11.455-11.454c6.28 0 11.449 5.163 11.455 11.443l-11.455.011z" fill="#000000" fill-opacity=".985651"/><path d="M8581.458 49.951l17.182 18.327m-17.182 0l17.182-18.327-17.182 18.327zm47.537-9.164c0 5.656-4.654 10.31-10.309 10.31-5.656 0-10.31-4.654-10.31-10.31 0-5.655 4.654-10.309 10.31-10.309 5.651 0 10.303 4.648 10.309 10.299v.01zm114.547 0c0 5.656-4.654 10.31-10.309 10.31-5.656 0-10.309-4.654-10.309-10.31 0-5.655 4.653-10.309 10.309-10.309 5.652 0 10.304 4.648 10.309 10.299v.01z" fill="none" stroke="#000000" stroke-width=".57" stroke-dasharray="24.761233561613807,0.36047125712809636" stroke-dashoffset="25.121705"/></g><g><path d="M8775 0h225v290.5h-225z" fill="#ffffff"/><path d="M8814.476 76.297h144.33v5.727h-144.33z" fill="#000000" fill-opacity=".989667"/><path d="M8815.049 82.024v45.819m0 0h28.637m-28.637 0v45.819m0 0h28.637m-28.637 0v45.819m0 0h28.637m-28.637 0V265.3m0 0h28.637m0-183.276v45.819m0 0h28.636m-28.636 0v45.819m0 0h28.636m-28.636 0v45.819m0 0h28.636m-28.636 0V265.3m0 0h28.636m0-183.276v45.819m0 0h28.637m-28.637 0v45.819m0 0h28.637m-28.637 0v45.819m0 0h28.637m-28.637 0V265.3m0 0h28.637m0-183.276v45.819m0 0h28.637m-28.637 0v45.819m0 0h28.637m-28.637 0v45.819m0 0h28.637m-28.637 0V265.3m0 0h28.637m0-183.276v45.819m0 0h28.637m-28.637 0v45.819m0 0h28.637m-28.637 0v45.819m0 0h28.637m-28.637 0V265.3m0 0h28.637m0-183.276v45.819m0 0v45.819m0 0v45.819m0 0V265.3v-45.819z" fill="none" stroke="#000000" stroke-width="1.15" stroke-dasharray="45.34554689804578,0.47345310195422197" stroke-dashoffset="45.819"/><path d="M8872.322 150.752h11.455c0 6.284-5.171 11.455-11.455 11.455-6.283 0-11.454-5.171-11.454-11.455s5.171-11.454 11.454-11.454c6.28 0 11.449 5.163 11.455 11.443m17.182.011h11.455c0 6.284-5.171 11.455-11.455 11.455s-11.454-5.171-11.454-11.455 5.17-11.454 11.454-11.454c6.28 0 11.449 5.163 11.455 11.443m17.182-45.808h11.455c0 6.284-5.171 11.455-11.455 11.455s-11.455-5.171-11.455-11.455 5.171-11.454 11.455-11.454c6.28 0 11.449 5.163 11.455 11.443l-11.455.011z" fill="#000000" fill-opacity=".989667"/><path d="M8806.458 49.951l17.182 18.327m-17.182 0l17.182-18.327-17.182 18.327zm47.537-9.164c0 5.656-4.654 10.31-10.309 10.31-5.656 0-10.31-4.654-10.31-10.31 0-5.655 4.654-10.309 10.31-10.309 5.651 0 10.303 4.648 10.309 10.299v.01zm114.547 0c0 5.656-4.654 10.31-10.309 10.31-5.656 0-10.309-4.654-10.309-10.31 0-5.655 4.653-10.309 10.309-10.309 5.652 0 10.304 4.648 10.309 10.299v.01z" fill="none" stroke="#000000" stroke-width=".57" stroke-dasharray="24.862119295862495,0.25958552287940984" stroke-dashoffset="25.121705"/></g><g><path d="M9000 0h225v290.5h-225z" fill="#ffffff"/><path d="M9039.476 76.297h144.33v5.727h-144.33z" fill="#000000" fill-opacity=".992963"/><path d="M9040.049 82.024v45.819m0 0h28.637m-28.637 0v45.819m0 0h28.637m-28.637 0v45.819m0 0h28.637m-28.637 0V265.3m0 0h28.637m0-183.276v45.819m0 0h28.636m-28.636 0v45.819m0 0h28.636m-28.636 0v45.819m0 0h28.636m-28.636 0V265.3m0 0h28.636m0-183.276v45.819m0 0h28.637m-28.637 0v45.819m0 0h28.637m-28.637 0v45.819m0 0h28.637m-28.637 0V265.3m0 0h28.637m0-183.276v45.819m0 0h28.637m-28.637 0v45.819m0 0h28.637m-28.637 0v45.819m0 0h28.637m-28.637 0V265.3m0 0h28.637m0-183.276v45.819m0 0h28.637m-28.637 0v45.819m0 0h28.637m-28.637 0v45.819m0 0h28.637m-28.637 0V265.3m0 0h28.637m0-183.276v45.819m0 0v45.819m0 0v45.819m0 0V265.3v-45.819z" fill="none" stroke="#000000" stroke-width="1.15" stroke-dasharray="45.49655672609299,0.3224432739070146" stroke-dashoffset="45.819"/><path d="M9097.322 150.752h11.455c0 6.284-5.171 11.455-11.455 11.455-6.283 0-11.454-5.171-11.454-11.455s5.171-11.454 11.454-11.454c6.28 0 11.449 5.163 11.455 11.443m17.182.011h11.455c0 6.284-5.171 11.455-11.455 11.455s-11.454-5.171-11.454-11.455 5.17-11.454 11.454-11.454c6.28 0 11.449 5.163 11.455 11.443m17.182-45.808h11.455c0 6.284-5.171 11.455-11.455 11.455s-11.455-5.171-11.455-11.455 5.171-11.454 11.455-11.454c6.28 0 11.449 5.163 11.455 11.443l-11.455.011z" fill="#000000" fill-opacity=".992963"/><path d="M9031.458 49.951l17.182 18.327m-17.182 0l17.182-18.327-17.182 18.327zm47.537-9.164c0 5.656-4.654 10.31-10.309 10.31-5.656 0-10.31-4.654-10.31-10.31 0-5.655 4.654-10.309 10.31-10.309 5.651 0 10.303 4.648 10.309 10.299v.01zm114.547 0c0 5.656-4.654 10.31-10.309 10.31-5.656 0-10.309-4.654-10.309-10.31 0-5.655 4.653-10.309 10.309-10.309 5.652 0 10.304 4.648 10.309 10.299v.01z" fill="none" stroke="#000000" stroke-width=".57" stroke-dasharray="24.94491517366277,0.1767896450791323" stroke-dashoffset="25.121705"/></g><g><path d="M9225 0h225v290.5h-225z" fill="#ffffff"/><path d="M9264.476 76.297h144.33v5.727h-144.33z" fill="#000000" fill-opacity=".995581"/><path d="M9265.049 82.024v45.819m0 0h28.637m-28.637 0v45.819m0 0h28.637m-28.637 0v45.819m0 0h28.637m-28.637 0V265.3m0 0h28.637m0-183.276v45.819m0 0h28.636m-28.636 0v45.819m0 0h28.636m-28.636 0v45.819m0 0h28.636m-28.636 0V265.3m0 0h28.636m0-183.276v45.819m0 0h28.637m-28.637 0v45.819m0 0h28.637m-28.637 0v45.819m0 0h28.637m-28.637 0V265.3m0 0h28.637m0-183.276v45.819m0 0h28.637m-28.637 0v45.819m0 0h28.637m-28.637 0v45.819m0 0h28.637m-28.637 0V265.3m0 0h28.637m0-183.276v45.819m0 0h28.637m-28.637 0v45.819m0 0h28.637m-28.637 0v45.819m0 0h28.637m-28.637 0V265.3m0 0h28.637m0-183.276v45.819m0 0v45.819m0 0v45.819m0 0V265.3v-45.819z" fill="none" stroke="#000000" stroke-width="1.15" stroke-dasharray="45.61651417831209,0.20248582168791515" stroke-dashoffset="45.819"/><path d="M9322.322 150.752h11.455c0 6.284-5.171 11.455-11.455 11.455-6.283 0-11.454-5.171-11.454-11.455s5.171-11.454 11.454-11.454c6.28 0 11.449 5.163 11.455 11.443m17.182.011h11.455c0 6.284-5.171 11.455-11.455 11.455s-11.454-5.171-11.454-11.455 5.17-11.454 11.454-11.454c6.28 0 11.449 5.163 11.455 11.443m17.182-45.808h11.455c0 6.284-5.171 11.455-11.455 11.455s-11.455-5.171-11.455-11.455 5.171-11.454 11.455-11.454c6.28 0 11.449 5.163 11.455 11.443l-11.455.011z" fill="#000000" fill-opacity=".995581"/><path d="M9256.458 49.951l17.182 18.327m-17.182 0l17.182-18.327-17.182 18.327zm47.537-9.164c0 5.656-4.654 10.31-10.309 10.31-5.656 0-10.31-4.654-10.31-10.31 0-5.655 4.654-10.309 10.31-10.309 5.651 0 10.303 4.648 10.309 10.299v.01zm114.547 0c0 5.656-4.654 10.31-10.309 10.31-5.656 0-10.309-4.654-10.309-10.31 0-5.655 4.653-10.309 10.309-10.309 5.652 0 10.304 4.648 10.309 10.299v.01z" fill="none" stroke="#000000" stroke-width=".57" stroke-dasharray="25.010685611809752,0.11101920693215067" stroke-dashoffset="25.121705"/></g><g><path d="M9450 0h225v290.5h-225z" fill="#ffffff"/><path d="M9489.476 76.297h144.33v5.727h-144.33z" fill="#000000" fill-opacity=".99756"/><path d="M9490.049 82.024v45.819m0 0h28.637m-28.637 0v45.819m0 0h28.637m-28.637 0v45.819m0 0h28.637m-28.637 0V265.3m0 0h28.637m0-183.276v45.819m0 0h28.636m-28.636 0v45.819m0 0h28.636m-28.636 0v45.819m0 0h28.636m-28.636 0V265.3m0 0h28.636m0-183.276v45.819m0 0h28.637m-28.637 0v45.819m0 0h28.637m-28.637 0v45.819m0 0h28.637m-28.637 0V265.3m0 0h28.637m0-183.276v45.819m0 0h28.637m-28.637 0v45.819m0 0h28.637m-28.637 0v45.819m0 0h28.637m-28.637 0V265.3m0 0h28.637m0-183.276v45.819m0 0h28.637m-28.637 0v45.819m0 0h28.637m-28.637 0v45.819m0 0h28.637m-28.637 0V265.3m0 0h28.637m0-183.276v45.819m0 0v45.819m0 0v45.819m0 0V265.3v-45.819z" fill="none" stroke="#000000" stroke-width="1.15" stroke-dasharray="45.707187847787935,0.11181215221207044" stroke-dashoffset="45.819"/><path d="M9547.322 150.752h11.455c0 6.284-5.171 11.455-11.455 11.455-6.283 0-11.454-5.171-11.454-11.455s5.171-11.454 11.454-11.454c6.28 0 11.449 5.163 11.455 11.443m17.182.011h11.455c0 6.284-5.171 11.455-11.455 11.455s-11.454-5.171-11.454-11.455 5.17-11.454 11.454-11.454c6.28 0 11.449 5.163 11.455 11.443m17.182-45.808h11.455c0 6.284-5.171 11.455-11.455 11.455s-11.455-5.171-11.455-11.455 5.171-11.454 11.455-11.454c6.28 0 11.449 5.163 11.455 11.443l-11.455.011z" fill="#000000" fill-opacity=".99756"/><path d="M9481.458 49.951l17.182 18.327m-17.182 0l17.182-18.327-17.182 18.327zm47.537-9.164c0 5.656-4.654 10.31-10.309 10.31-5.656 0-10.31-4.654-10.31-10.31 0-5.655 4.654-10.309 10.31-10.309 5.651 0 10.303 4.648 10.309 10.299v.01zm114.547 0c0 5.656-4.654 10.31-10.309 10.31-5.656 0-10.309-4.654-10.309-10.31 0-5.655 4.653-10.309 10.309-10.309 5.652 0 10.304 4.648 10.309 10.299v.01z" fill="none" stroke="#000000" stroke-width=".57" stroke-dasharray="25.060400296971025,0.061304521770878306" stroke-dashoffset="25.121705"/></g><g><path d="M9675 0h225v290.5h-225z" fill="#ffffff"/><path d="M9714.476 76.297h144.33v5.727h-144.33z" fill="#000000" fill-opacity=".998935"/><path d="M9715.049 82.024v45.819m0 0h28.637m-28.637 0v45.819m0 0h28.637m-28.637 0v45.819m0 0h28.637m-28.637 0V265.3m0 0h28.637m0-183.276v45.819m0 0h28.636m-28.636 0v45.819m0 0h28.636m-28.636 0v45.819m0 0h28.636m-28.636 0V265.3m0 0h28.636m0-183.276v45.819m0 0h28.637m-28.637 0v45.819m0 0h28.637m-28.637 0v45.819m0 0h28.637m-28.637 0V265.3m0 0h28.637m0-183.276v45.819m0 0h28.637m-28.637 0v45.819m0 0h28.637m-28.637 0v45.819m0 0h28.637m-28.637 0V265.3m0 0h28.637m0-183.276v45.819m0 0h28.637m-28.637 0v45.819m0 0h28.637m-28.637 0v45.819m0 0h28.637m-28.637 0V265.3m0 0h28.637m0-183.276v45.819m0 0v45.819m0 0v45.819m0 0V265.3v-45.819z" fill="none" stroke="#000000" stroke-width="1.15" stroke-dasharray="45.77019347560026,0.048806524399746316" stroke-dashoffset="45.819"/><path d="M9772.322 150.752h11.455c0 6.284-5.171 11.455-11.455 11.455-6.283 0-11.454-5.171-11.454-11.455s5.171-11.454 11.454-11.454c6.28 0 11.449 5.163 11.455 11.443m17.182.011h11.455c0 6.284-5.171 11.455-11.455 11.455s-11.454-5.171-11.454-11.455 5.17-11.454 11.454-11.454c6.28 0 11.449 5.163 11.455 11.443m17.182-45.808h11.455c0 6.284-5.171 11.455-11.455 11.455s-11.455-5.171-11.455-11.455 5.171-11.454 11.455-11.454c6.28 0 11.449 5.163 11.455 11.443l-11.455.011z" fill="#000000" fill-opacity=".998935"/><path d="M9706.458 49.951l17.182 18.327m-17.182 0l17.182-18.327-17.182 18.327zm47.537-9.164c0 5.656-4.654 10.31-10.309 10.31-5.656 0-10.31-4.654-10.31-10.31 0-5.655 4.654-10.309 10.31-10.309 5.651 0 10.303 4.648 10.309 10.299v.01zm114.547 0c0 5.656-4.654 10.31-10.309 10.31-5.656 0-10.309-4.654-10.309-10.31 0-5.655 4.653-10.309 10.309-10.309 5.652 0 10.304 4.648 10.309 10.299v.01z" fill="none" stroke="#000000" stroke-width=".57" stroke-dasharray="25.094945109904977,0.026759708836926847" stroke-dashoffset="25.121705"/></g><g><path d="M9900 0h225v290.5h-225z" fill="#ffffff"/><path d="M9939.476 76.297h144.33v5.727h-144.33z" fill="#000000" fill-opacity=".999738"/><path d="M9940.049 82.024v45.819m0 0h28.637m-28.637 0v45.819m0 0h28.637m-28.637 0v45.819m0 0h28.637m-28.637 0V265.3m0 0h28.637m0-183.276v45.819m0 0h28.636m-28.636 0v45.819m0 0h28.636m-28.636 0v45.819m0 0h28.636m-28.636 0V265.3m0 0h28.636m0-183.276v45.819m0 0h28.637m-28.637 0v45.819m0 0h28.637m-28.637 0v45.819m0 0h28.637m-28.637 0V265.3m0 0h28.637m0-183.276v45.819m0 0h28.637m-28.637 0v45.819m0 0h28.637m-28.637 0v45.819m0 0h28.637m-28.637 0V265.3m0 0h28.637m0-183.276v45.819m0 0h28.637m-28.637 0v45.819m0 0h28.637m-28.637 0v45.819m0 0h28.637m-28.637 0V265.3m0 0h28.637m0-183.276v45.819m0 0v45.819m0 0v45.819m0 0V265.3v-45.819z" fill="none" stroke="#000000" stroke-width="1.15" stroke-dasharray="45.80701111911143,0.011988880888575831" stroke-dashoffset="45.819"/><path d="M9997.322 150.752h11.455c0 6.284-5.171 11.455-11.455 11.455-6.283 0-11.454-5.171-11.454-11.455s5.171-11.454 11.454-11.454c6.28 0 11.449 5.163 11.455 11.443m17.182.011h11.455c0 6.284-5.171 11.455-11.455 11.455s-11.454-5.171-11.454-11.455 5.17-11.454 11.454-11.454c6.28 0 11.449 5.163 11.455 11.443m17.182-45.808h11.455c0 6.284-5.171 11.455-11.455 11.455s-11.455-5.171-11.455-11.455 5.171-11.454 11.455-11.454c6.28 0 11.449 5.163 11.455 11.443l-11.455.011z" fill="#000000" fill-opacity=".999738"/><path d="M9931.458 49.951l17.182 18.327m-17.182 0l17.182-18.327-17.182 18.327zm47.537-9.164c0 5.656-4.654 10.31-10.309 10.31-5.656 0-10.31-4.654-10.31-10.31 0-5.655 4.654-10.309 10.31-10.309 5.651 0 10.303 4.648 10.309 10.299v.01zm114.547 0c0 5.656-4.654 10.31-10.309 10.31-5.656 0-10.309-4.654-10.309-10.31 0-5.655 4.653-10.309 10.309-10.309 5.652 0 10.304 4.648 10.309 10.299v.01z" fill="none" stroke="#000000" stroke-width=".57" stroke-dasharray="25.1151315385134,0.006573280228504728" stroke-dashoffset="25.121705"/></g><g><path d="M10125 0h225v290.5h-225z" fill="#ffffff"/><path d="M10164.476 76.297h144.33v5.727h-144.33z" fill="#000000"/><path d="M10165.049 82.024v45.819m0 0h28.637m-28.637 0v45.819m0 0h28.637m-28.637 0v45.819m0 0h28.637m-28.637 0V265.3m0 0h28.637m0-183.276v45.819m0 0h28.636m-28.636 0v45.819m0 0h28.636m-28.636 0v45.819m0 0h28.636m-28.636 0V265.3m0 0h28.636m0-183.276v45.819m0 0h28.637m-28.637 0v45.819m0 0h28.637m-28.637 0v45.819m0 0h28.637m-28.637 0V265.3m0 0h28.637m0-183.276v45.819m0 0h28.637m-28.637 0v45.819m0 0h28.637m-28.637 0v45.819m0 0h28.637m-28.637 0V265.3m0 0h28.637m0-183.276v45.819m0 0h28.637m-28.637 0v45.819m0 0h28.637m-28.637 0v45.819m0 0h28.637m-28.637 0V265.3m0 0h28.637m0-183.276v45.819m0 0v45.819m0 0v45.819m0 0V265.3v-45.819z" fill="none" stroke="#000000" stroke-width="1.15"/><path d="M10222.322 150.752h11.455c0 6.284-5.171 11.455-11.455 11.455-6.283 0-11.454-5.171-11.454-11.455s5.171-11.454 11.454-11.454c6.28 0 11.449 5.163 11.455 11.443m17.182.011h11.455c0 6.284-5.171 11.455-11.455 11.455s-11.454-5.171-11.454-11.455 5.17-11.454 11.454-11.454c6.28 0 11.449 5.163 11.455 11.443m17.182-45.808h11.455c0 6.284-5.171 11.455-11.455 11.455s-11.455-5.171-11.455-11.455 5.171-11.454 11.455-11.454c6.28 0 11.449 5.163 11.455 11.443l-11.455.011z" fill="#000000"/><path d="M10156.458 49.951l17.182 18.327m-17.182 0l17.182-18.327-17.182 18.327zm47.537-9.164c0 5.656-4.654 10.31-10.309 10.31-5.656 0-10.31-4.654-10.31-10.31 0-5.655 4.654-10.309 10.31-10.309 5.651 0 10.303 4.648 10.309 10.299v.01zm114.547 0c0 5.656-4.654 10.31-10.309 10.31-5.656 0-10.309-4.654-10.309-10.31 0-5.655 4.653-10.309 10.309-10.309 5.652 0 10.304 4.648 10.309 10.299v.01z" fill="none" stroke="#000000" stroke-width=".57"/></g></svg>