<?xml version="1.0" standalone="no"?><!DOCTYPE svg PUBLIC "-//W3C//DTD SVG 1.1//EN" "http://www.w3.org/Graphics/SVG/1.1/DTD/svg11.dtd"><svg version="1.1" xmlns="http://www.w3.org/2000/svg" xmlns:xlink="http://www.w3.org/1999/xlink" width="450" height="581"><defs></defs><g><path fill="white" stroke="none" paint-order="stroke fill markers" d=" M 0 0 L 450 0 L 450 581 L 0 581 L 0 0 Z"></path><text fill="black" stroke="none" font-family="&quot;Helvetica Neue&quot;,Helvetica,Arial,sans-serif" font-size="60px" font-style="normal" font-weight="normal" text-decoration="normal" x="237.5" y="80" text-anchor="middle" dominant-baseline="alphabetic">Fm</text><rect fill="black" stroke="none" x="99" y="170" width="252" height="10"></rect><path fill="none" stroke="black" paint-order="fill stroke markers" d=" M 100 180 L 100 260 M 100 260 L 150 260 M 100 260 L 100 340 M 100 340 L 150 340 M 100 340 L 100 420 M 100 420 L 150 420 M 100 420 L 100 500 M 100 500 L 150 500 M 150 180 L 150 260 M 150 260 L 200 260 M 150 260 L 150 340 M 150 340 L 200 340 M 150 340 L 150 420 M 150 420 L 200 420 M 150 420 L 150 500 M 150 500 L 200 500 M 200 180 L 200 260 M 200 260 L 250 260 M 200 260 L 200 340 M 200 340 L 250 340 M 200 340 L 200 420 M 200 420 L 250 420 M 200 420 L 200 500 M 200 500 L 250 500 M 250 180 L 250 260 M 250 260 L 300 260 M 250 260 L 250 340 M 250 340 L 300 340 M 250 340 L 250 420 M 250 420 L 300 420 M 250 420 L 250 500 M 250 500 L 300 500 M 300 180 L 300 260 M 300 260 L 350 260 M 300 260 L 300 340 M 300 340 L 350 340 M 300 340 L 300 420 M 300 420 L 350 420 M 300 420 L 300 500 M 300 500 L 350 500 M 350 180 L 350 260 M 350 260 L 350 340 M 350 340 L 350 420 M 350 420 L 350 500 Z" stroke-miterlimit="10" stroke-width="2"></path><path fill="black" stroke="none" paint-order="stroke fill markers" d=" M 100 220 L 120 220 A 20 20 0 1 1 119.99999000000084 219.98000000333332 M 150 380 L 170 380 A 20 20 0 1 1 169.99999000000082 379.9800000033333 M 200 380 L 220 380 A 20 20 0 1 1 219.99999000000082 379.9800000033333 M 250 220 L 270 220 A 20 20 0 1 1 269.9999900000008 219.98000000333332 M 300 220 L 320 220 A 20 20 0 1 1 319.9999900000008 219.98000000333332 M 350 220 L 370 220 A 20 20 0 1 1 369.9999900000008 219.98000000333332 Z"></path><text fill="rgb(0, 0, 0)" stroke="none" font-family="&quot;Helvetica Neue&quot;,Helvetica,Arial,sans-serif" font-size="34px" font-style="normal" font-weight="normal" text-decoration="normal" x="100" y="544" text-anchor="middle" dominant-baseline="alphabetic">1</text><text fill="rgb(0, 0, 0)" stroke="none" font-family="&quot;Helvetica Neue&quot;,Helvetica,Arial,sans-serif" font-size="34px" font-style="normal" font-weight="normal" text-decoration="normal" x="150" y="544" text-anchor="middle" dominant-baseline="alphabetic">3</text><text fill="rgb(0, 0, 0)" stroke="none" font-family="&quot;Helvetica Neue&quot;,Helvetica,Arial,sans-serif" font-size="34px" font-style="normal" font-weight="normal" text-decoration="normal" x="200" y="544" text-anchor="middle" dominant-baseline="alphabetic">4</text><text fill="rgb(0, 0, 0)" stroke="none" font-family="&quot;Helvetica Neue&quot;,Helvetica,Arial,sans-serif" font-size="34px" font-style="normal" font-weight="normal" text-decoration="normal" x="250" y="544" text-anchor="middle" dominant-baseline="alphabetic">1</text><text fill="rgb(0, 0, 0)" stroke="none" font-family="&quot;Helvetica Neue&quot;,Helvetica,Arial,sans-serif" font-size="34px" font-style="normal" font-weight="normal" text-decoration="normal" x="300" y="544" text-anchor="middle" dominant-baseline="alphabetic">1</text><text fill="rgb(0, 0, 0)" stroke="none" font-family="&quot;Helvetica Neue&quot;,Helvetica,Arial,sans-serif" font-size="34px" font-style="normal" font-weight="normal" text-decoration="normal" x="350" y="544" text-anchor="middle" dominant-baseline="alphabetic">1</text><path fill="black" stroke="none" paint-order="stroke fill markers" d=" M 90.00000000000009 159.99999999999994 A 391.68749999999983 391.68749999999983 0 0 1 360 159.99999999999994 L 359.99999999999994 160 A 765.3749999999995 765.3749999999995 0 0 0 90.00000000000014 160 Z"></path></g></svg>